# Blender 5.1.2
# www.blender.org
mtllib mech_arm.mtl
o Mechanical_Arm_WideGrip_Solid
v 0.000000 0.500000 -0.000000
v 1.200000 0.500000 -0.000000
v 0.000000 0.461940 0.191342
v 1.200000 0.461940 0.191342
v 0.000000 0.353553 0.353553
v 1.200000 0.353553 0.353553
v 0.000000 0.191342 0.461940
v 1.200000 0.191342 0.461940
v 0.000000 0.000000 0.500000
v 1.200000 0.000000 0.500000
v 0.000000 -0.191342 0.461940
v 1.200000 -0.191342 0.461940
v 0.000000 -0.353553 0.353553
v 1.200000 -0.353553 0.353553
v 0.000000 -0.461940 0.191342
v 1.200000 -0.461940 0.191342
v 0.000000 -0.500000 0.000000
v 1.200000 -0.500000 0.000000
v 0.000000 -0.461940 -0.191342
v 1.200000 -0.461940 -0.191342
v 0.000000 -0.353553 -0.353553
v 1.200000 -0.353553 -0.353553
v 0.000000 -0.191342 -0.461940
v 1.200000 -0.191342 -0.461940
v 0.000000 -0.000000 -0.500000
v 1.200000 -0.000000 -0.500000
v 0.000000 0.191342 -0.461940
v 1.200000 0.191342 -0.461940
v 0.000000 0.353553 -0.353553
v 1.200000 0.353553 -0.353553
v 0.000000 0.461940 -0.191342
v 1.200000 0.461940 -0.191342
v 1.100000 0.250000 -0.000000
v 3.600000 0.250000 -0.000000
v 1.100000 0.230970 0.095671
v 3.600000 0.230970 0.095671
v 1.100000 0.176777 0.176777
v 3.600000 0.176777 0.176777
v 1.100000 0.095671 0.230970
v 3.600000 0.095671 0.230970
v 1.100000 0.000000 0.250000
v 3.600000 0.000000 0.250000
v 1.100000 -0.095671 0.230970
v 3.600000 -0.095671 0.230970
v 1.100000 -0.176777 0.176777
v 3.600000 -0.176777 0.176777
v 1.100000 -0.230970 0.095671
v 3.600000 -0.230970 0.095671
v 1.100000 -0.250000 0.000000
v 3.600000 -0.250000 0.000000
v 1.100000 -0.230970 -0.095671
v 3.600000 -0.230970 -0.095671
v 1.100000 -0.176777 -0.176777
v 3.600000 -0.176777 -0.176777
v 1.100000 -0.095671 -0.230970
v 3.600000 -0.095671 -0.230970
v 1.100000 -0.000000 -0.250000
v 3.600000 -0.000000 -0.250000
v 1.100000 0.095671 -0.230970
v 3.600000 0.095671 -0.230970
v 1.100000 0.176777 -0.176777
v 3.600000 0.176777 -0.176777
v 1.100000 0.230970 -0.095671
v 3.600000 0.230970 -0.095671
v 3.700000 0.400000 -0.000000
v 4.500000 0.400000 -0.000000
v 3.700000 0.369552 0.153073
v 4.500000 0.369552 0.153073
v 3.700000 0.282843 0.282843
v 4.500000 0.282843 0.282843
v 3.700000 0.153073 0.369552
v 4.500000 0.153073 0.369552
v 3.700000 0.000000 0.400000
v 4.500000 0.000000 0.400000
v 3.700000 -0.153073 0.369552
v 4.500000 -0.153073 0.369552
v 3.700000 -0.282843 0.282843
v 4.500000 -0.282843 0.282843
v 3.700000 -0.369552 0.153073
v 4.500000 -0.369552 0.153073
v 3.700000 -0.400000 0.000000
v 4.500000 -0.400000 0.000000
v 3.700000 -0.369552 -0.153073
v 4.500000 -0.369552 -0.153073
v 3.700000 -0.282843 -0.282843
v 4.500000 -0.282843 -0.282843
v 3.700000 -0.153073 -0.369552
v 4.500000 -0.153073 -0.369552
v 3.700000 -0.000000 -0.400000
v 4.500000 -0.000000 -0.400000
v 3.700000 0.153073 -0.369552
v 4.500000 0.153073 -0.369552
v 3.700000 0.282843 -0.282843
v 4.500000 0.282843 -0.282843
v 3.700000 0.369552 -0.153073
v 4.500000 0.369552 -0.153073
v 4.400000 0.600000 -0.000000
v 6.600000 0.600000 -0.000000
v 4.400000 0.584776 0.076537
v 6.600000 0.584776 0.076537
v 4.400000 0.541421 0.141421
v 6.600000 0.541421 0.141421
v 4.400000 0.476537 0.184776
v 6.600000 0.476537 0.184776
v 4.400000 0.400000 0.200000
v 6.600000 0.400000 0.200000
v 4.400000 0.323463 0.184776
v 6.600000 0.323463 0.184776
v 4.400000 0.258579 0.141421
v 6.600000 0.258579 0.141421
v 4.400000 0.215224 0.076537
v 6.600000 0.215224 0.076537
v 4.400000 0.200000 -0.000000
v 6.600000 0.200000 -0.000000
v 4.400000 0.215224 -0.076537
v 6.600000 0.215224 -0.076537
v 4.400000 0.258579 -0.141421
v 6.600000 0.258579 -0.141421
v 4.400000 0.323463 -0.184776
v 6.600000 0.323463 -0.184776
v 4.400000 0.400000 -0.200000
v 6.600000 0.400000 -0.200000
v 4.400000 0.476537 -0.184776
v 6.600000 0.476537 -0.184776
v 4.400000 0.541421 -0.141421
v 6.600000 0.541421 -0.141421
v 4.400000 0.584776 -0.076537
v 6.600000 0.584776 -0.076537
v 6.600000 0.650000 -0.000000
v 7.100000 0.650000 -0.000000
v 6.600000 0.630970 0.095671
v 7.100000 0.630970 0.095671
v 6.600000 0.576777 0.176777
v 7.100000 0.576777 0.176777
v 6.600000 0.495671 0.230970
v 7.100000 0.495671 0.230970
v 6.600000 0.400000 0.250000
v 7.100000 0.400000 0.250000
v 6.600000 0.304329 0.230970
v 7.100000 0.304329 0.230970
v 6.600000 0.223223 0.176777
v 7.100000 0.223223 0.176777
v 6.600000 0.169030 0.095671
v 7.100000 0.169030 0.095671
v 6.600000 0.150000 -0.000000
v 7.100000 0.150000 -0.000000
v 6.600000 0.169030 -0.095671
v 7.100000 0.169030 -0.095671
v 6.600000 0.223223 -0.176777
v 7.100000 0.223223 -0.176777
v 6.600000 0.304329 -0.230970
v 7.100000 0.304329 -0.230970
v 6.600000 0.400000 -0.250000
v 7.100000 0.400000 -0.250000
v 6.600000 0.495671 -0.230970
v 7.100000 0.495671 -0.230970
v 6.600000 0.576777 -0.176777
v 7.100000 0.576777 -0.176777
v 6.600000 0.630970 -0.095671
v 7.100000 0.630970 -0.095671
v 7.000000 0.650000 -0.000000
v 7.350000 0.650000 -0.000000
v 7.000000 0.630970 0.095671
v 7.350000 0.630970 0.095671
v 7.000000 0.576777 0.176777
v 7.350000 0.576777 0.176777
v 7.000000 0.495671 0.230970
v 7.350000 0.495671 0.230970
v 7.000000 0.400000 0.250000
v 7.350000 0.400000 0.250000
v 7.000000 0.304329 0.230970
v 7.350000 0.304329 0.230970
v 7.000000 0.223223 0.176777
v 7.350000 0.223223 0.176777
v 7.000000 0.169030 0.095671
v 7.350000 0.169030 0.095671
v 7.000000 0.150000 -0.000000
v 7.350000 0.150000 -0.000000
v 7.000000 0.169030 -0.095671
v 7.350000 0.169030 -0.095671
v 7.000000 0.223223 -0.176777
v 7.350000 0.223223 -0.176777
v 7.000000 0.304329 -0.230970
v 7.350000 0.304329 -0.230970
v 7.000000 0.400000 -0.250000
v 7.350000 0.400000 -0.250000
v 7.000000 0.495671 -0.230970
v 7.350000 0.495671 -0.230970
v 7.000000 0.576777 -0.176777
v 7.350000 0.576777 -0.176777
v 7.000000 0.630970 -0.095671
v 7.350000 0.630970 -0.095671
v 7.350000 1.070000 0.280000
v 8.450000 1.070000 0.280000
v 7.350000 1.060866 0.325922
v 8.450000 1.060866 0.325922
v 7.350000 1.034853 0.364853
v 8.450000 1.034853 0.364853
v 7.350000 0.995922 0.390865
v 8.450000 0.995922 0.390865
v 7.350000 0.950000 0.400000
v 8.450000 0.950000 0.400000
v 7.350000 0.904078 0.390865
v 8.450000 0.904078 0.390865
v 7.350000 0.865147 0.364853
v 8.450000 0.865147 0.364853
v 7.350000 0.839134 0.325922
v 8.450000 0.839134 0.325922
v 7.350000 0.830000 0.280000
v 8.450000 0.830000 0.280000
v 7.350000 0.839134 0.234078
v 8.450000 0.839134 0.234078
v 7.350000 0.865147 0.195147
v 8.450000 0.865147 0.195147
v 7.350000 0.904078 0.169134
v 8.450000 0.904078 0.169134
v 7.350000 0.950000 0.160000
v 8.450000 0.950000 0.160000
v 7.350000 0.995922 0.169134
v 8.450000 0.995922 0.169134
v 7.350000 1.034853 0.195147
v 8.450000 1.034853 0.195147
v 7.350000 1.060866 0.234078
v 8.450000 1.060866 0.234078
v 8.350000 1.270000 0.392000
v 9.150000 1.270000 0.392000
v 8.350000 1.262388 0.430268
v 9.150000 1.262388 0.430268
v 8.350000 1.240711 0.462711
v 9.150000 1.240711 0.462711
v 8.350000 1.208268 0.484388
v 9.150000 1.208268 0.484388
v 8.350000 1.170000 0.492000
v 9.150000 1.170000 0.492000
v 8.350000 1.131732 0.484388
v 9.150000 1.131732 0.484388
v 8.350000 1.099289 0.462711
v 9.150000 1.099289 0.462711
v 8.350000 1.077612 0.430268
v 9.150000 1.077612 0.430268
v 8.350000 1.070000 0.392000
v 9.150000 1.070000 0.392000
v 8.350000 1.077612 0.353732
v 9.150000 1.077612 0.353732
v 8.350000 1.099289 0.321289
v 9.150000 1.099289 0.321289
v 8.350000 1.131732 0.299612
v 9.150000 1.131732 0.299612
v 8.350000 1.170000 0.292000
v 9.150000 1.170000 0.292000
v 8.350000 1.208268 0.299612
v 9.150000 1.208268 0.299612
v 8.350000 1.240711 0.321289
v 9.150000 1.240711 0.321289
v 8.350000 1.262388 0.353732
v 9.150000 1.262388 0.353732
v 7.350000 0.520000 -0.550000
v 8.450000 0.520000 -0.550000
v 7.350000 0.510866 -0.504078
v 8.450000 0.510866 -0.504078
v 7.350000 0.484853 -0.465147
v 8.450000 0.484853 -0.465147
v 7.350000 0.445922 -0.439134
v 8.450000 0.445922 -0.439134
v 7.350000 0.400000 -0.430000
v 8.450000 0.400000 -0.430000
v 7.350000 0.354078 -0.439134
v 8.450000 0.354078 -0.439134
v 7.350000 0.315147 -0.465147
v 8.450000 0.315147 -0.465147
v 7.350000 0.289134 -0.504078
v 8.450000 0.289134 -0.504078
v 7.350000 0.280000 -0.550000
v 8.450000 0.280000 -0.550000
v 7.350000 0.289134 -0.595922
v 8.450000 0.289134 -0.595922
v 7.350000 0.315147 -0.634853
v 8.450000 0.315147 -0.634853
v 7.350000 0.354078 -0.660866
v 8.450000 0.354078 -0.660866
v 7.350000 0.400000 -0.670000
v 8.450000 0.400000 -0.670000
v 7.350000 0.445922 -0.660866
v 8.450000 0.445922 -0.660866
v 7.350000 0.484853 -0.634853
v 8.450000 0.484853 -0.634853
v 7.350000 0.510866 -0.595922
v 8.450000 0.510866 -0.595922
v 8.350000 0.500000 -0.770000
v 9.150000 0.500000 -0.770000
v 8.350000 0.492388 -0.731732
v 9.150000 0.492388 -0.731732
v 8.350000 0.470711 -0.699289
v 9.150000 0.470711 -0.699289
v 8.350000 0.438268 -0.677612
v 9.150000 0.438268 -0.677612
v 8.350000 0.400000 -0.670000
v 9.150000 0.400000 -0.670000
v 8.350000 0.361732 -0.677612
v 9.150000 0.361732 -0.677612
v 8.350000 0.329289 -0.699289
v 9.150000 0.329289 -0.699289
v 8.350000 0.307612 -0.731732
v 9.150000 0.307612 -0.731732
v 8.350000 0.300000 -0.770000
v 9.150000 0.300000 -0.770000
v 8.350000 0.307612 -0.808268
v 9.150000 0.307612 -0.808268
v 8.350000 0.329289 -0.840711
v 9.150000 0.329289 -0.840711
v 8.350000 0.361732 -0.862388
v 9.150000 0.361732 -0.862388
v 8.350000 0.400000 -0.870000
v 9.150000 0.400000 -0.870000
v 8.350000 0.438268 -0.862388
v 9.150000 0.438268 -0.862388
v 8.350000 0.470711 -0.840711
v 9.150000 0.470711 -0.840711
v 8.350000 0.492388 -0.808268
v 9.150000 0.492388 -0.808268
v 7.350000 -0.030000 0.280000
v 8.450000 -0.030000 0.280000
v 7.350000 -0.039134 0.325922
v 8.450000 -0.039134 0.325922
v 7.350000 -0.065147 0.364853
v 8.450000 -0.065147 0.364853
v 7.350000 -0.104078 0.390866
v 8.450000 -0.104078 0.390866
v 7.350000 -0.150000 0.400000
v 8.450000 -0.150000 0.400000
v 7.350000 -0.195922 0.390866
v 8.450000 -0.195922 0.390866
v 7.350000 -0.234853 0.364853
v 8.450000 -0.234853 0.364853
v 7.350000 -0.260866 0.325922
v 8.450000 -0.260866 0.325922
v 7.350000 -0.270000 0.280000
v 8.450000 -0.270000 0.280000
v 7.350000 -0.260866 0.234078
v 8.450000 -0.260866 0.234078
v 7.350000 -0.234853 0.195147
v 8.450000 -0.234853 0.195147
v 7.350000 -0.195922 0.169134
v 8.450000 -0.195922 0.169134
v 7.350000 -0.150000 0.160000
v 8.450000 -0.150000 0.160000
v 7.350000 -0.104078 0.169134
v 8.450000 -0.104078 0.169134
v 7.350000 -0.065147 0.195147
v 8.450000 -0.065147 0.195147
v 7.350000 -0.039134 0.234078
v 8.450000 -0.039134 0.234078
v 8.350000 -0.270000 0.392000
v 9.150000 -0.270000 0.392000
v 8.350000 -0.277612 0.430268
v 9.150000 -0.277612 0.430268
v 8.350000 -0.299289 0.462711
v 9.150000 -0.299289 0.462711
v 8.350000 -0.331732 0.484388
v 9.150000 -0.331732 0.484388
v 8.350000 -0.370000 0.492000
v 9.150000 -0.370000 0.492000
v 8.350000 -0.408268 0.484388
v 9.150000 -0.408268 0.484388
v 8.350000 -0.440711 0.462711
v 9.150000 -0.440711 0.462711
v 8.350000 -0.462388 0.430268
v 9.150000 -0.462388 0.430268
v 8.350000 -0.470000 0.392000
v 9.150000 -0.470000 0.392000
v 8.350000 -0.462388 0.353732
v 9.150000 -0.462388 0.353732
v 8.350000 -0.440711 0.321289
v 9.150000 -0.440711 0.321289
v 8.350000 -0.408268 0.299612
v 9.150000 -0.408268 0.299612
v 8.350000 -0.370000 0.292000
v 9.150000 -0.370000 0.292000
v 8.350000 -0.331732 0.299612
v 9.150000 -0.331732 0.299612
v 8.350000 -0.299289 0.321289
v 9.150000 -0.299289 0.321289
v 8.350000 -0.277612 0.353732
v 9.150000 -0.277612 0.353732
v 0.000000 -0.000000 -0.000000
v 1.200000 0.250000 -0.000000
v 1.200000 0.230970 0.095671
v 1.200000 0.176777 0.176777
v 1.200000 0.095671 0.230970
v 1.200000 0.000000 0.250000
v 1.200000 -0.095671 0.230970
v 1.200000 -0.176777 0.176777
v 1.200000 -0.230970 0.095671
v 1.200000 -0.250000 0.000000
v 1.200000 -0.230970 -0.095671
v 1.200000 -0.176777 -0.176777
v 1.200000 -0.095671 -0.230970
v 1.200000 -0.000000 -0.250000
v 1.200000 0.095671 -0.230970
v 1.200000 0.176777 -0.176777
v 1.200000 0.230970 -0.095671
v 4.500000 0.600000 -0.000000
v 4.500000 0.584776 0.076537
v 4.500000 0.541421 0.141421
v 4.500000 0.476537 0.184776
v 4.500000 0.400000 0.200000
v 4.500000 0.323463 0.184776
v 4.500000 0.258579 0.141421
v 4.500000 0.215224 0.076537
v 4.500000 0.200000 -0.000000
v 4.500000 0.215224 -0.076537
v 4.500000 0.258579 -0.141421
v 4.500000 0.323463 -0.184776
v 4.500000 0.400000 -0.200000
v 4.500000 0.476537 -0.184776
v 4.500000 0.541421 -0.141421
v 4.500000 0.584776 -0.076537
v 7.350000 0.400000 -0.000000
v 7.350000 0.950000 0.280000
v 7.350000 0.400000 -0.550000
v 7.350000 -0.150000 0.280000
v 9.150000 1.170000 0.392000
v 9.150000 0.400000 -0.770000
v 9.150000 -0.370000 0.392000
vn -0.0000 0.9808 0.1951
vn -0.0000 0.8315 0.5556
vn -0.0000 0.5556 0.8315
vn -0.0000 0.1951 0.9808
vn -0.0000 -0.1951 0.9808
vn -0.0000 -0.5556 0.8315
vn -0.0000 -0.8315 0.5556
vn -0.0000 -0.9808 0.1951
vn -0.0000 -0.9808 -0.1951
vn -0.0000 -0.8315 -0.5556
vn -0.0000 -0.5556 -0.8315
vn -0.0000 -0.1951 -0.9808
vn -0.0000 0.1951 -0.9808
vn -0.0000 0.5556 -0.8315
vn -0.0000 0.8315 -0.5556
vn -0.0000 0.9808 -0.1951
vn 1.0000 -0.0000 -0.0000
vn -1.0000 -0.0000 -0.0000
vn -0.0000 0.3827 -0.9239
vn -0.0000 0.7071 -0.7071
vn -0.0000 0.9239 -0.3827
vn -0.0000 1.0000 -0.0000
vn -0.0000 0.9239 0.3827
vn -0.0000 0.7071 0.7071
vn -0.0000 0.3827 0.9239
vn -0.0000 -0.0000 1.0000
vn -0.0000 -0.3827 0.9239
vn -0.0000 -0.7071 0.7071
vn -0.0000 -0.9239 0.3827
vn -0.0000 -1.0000 -0.0000
vn -0.0000 -0.9239 -0.3827
vn -0.0000 -0.7071 -0.7071
vn -0.0000 -0.3827 -0.9239
vn -0.0000 -0.0000 -1.0000
vn 0.8270 0.4674 0.3123
vn 0.8270 0.3123 0.4674
vn 0.8270 0.1097 0.5514
vn 0.8270 -0.1097 0.5514
vn 0.8270 -0.3123 0.4674
vn 0.8270 -0.4674 0.3123
vn 0.8270 -0.5514 0.1097
vn 0.8270 -0.5514 -0.1097
vn 0.8270 -0.4674 -0.3123
vn 0.8270 -0.3123 -0.4674
vn 0.8270 -0.1097 -0.5514
vn 0.8270 0.1097 -0.5514
vn 0.8270 0.3123 -0.4674
vn 0.8270 0.4674 -0.3123
vn 0.8270 0.5514 -0.1097
vn 0.8270 0.5514 0.1097
vn -0.9355 -0.2938 -0.1963
vn -0.9201 -0.2176 -0.3256
vn -0.8650 -0.0979 -0.4921
vn -0.6544 0.1475 -0.7416
vn 0.0944 0.5531 -0.8278
vn 0.7109 0.5848 -0.3907
vn 0.8674 0.4881 -0.0971
vn 0.9089 0.4089 0.0813
vn 0.9142 0.3370 0.2252
vn 0.8905 0.2528 0.3783
vn 0.7996 0.1172 0.5890
vn 0.4277 -0.1763 0.8866
vn -0.4380 -0.4995 0.7475
vn -0.8144 -0.4826 0.3224
vn -0.9056 -0.4160 0.0827
vn -0.9321 -0.3554 -0.0707
vn 0.7162 -0.5803 -0.3878
vn 0.8528 -0.2901 -0.4342
vn 0.8909 -0.0886 -0.4455
vn 0.8909 0.0886 -0.4455
vn 0.8528 0.2901 -0.4342
vn 0.7161 0.5803 -0.3877
vn 0.2270 0.9552 -0.1900
vn -0.5302 0.8316 0.1654
vn -0.8173 0.4791 0.3201
vn -0.8967 0.2460 0.3681
vn -0.9204 0.0763 0.3835
vn -0.9204 -0.0763 0.3835
vn -0.8967 -0.2460 0.3681
vn -0.8173 -0.4791 0.3201
vn -0.5302 -0.8316 0.1654
vn 0.2270 -0.9552 -0.1900
vn 0.7109 -0.5848 -0.3907
vn 0.0944 -0.5531 -0.8278
vn -0.6544 -0.1475 -0.7416
vn -0.8650 0.0979 -0.4921
vn -0.9201 0.2176 -0.3256
vn -0.9355 0.2938 -0.1963
vn -0.9321 0.3554 -0.0707
vn -0.9056 0.4160 0.0827
vn -0.8144 0.4826 0.3224
vn -0.4380 0.4995 0.7475
vn 0.4277 0.1763 0.8866
vn 0.7996 -0.1172 0.5890
vn 0.8905 -0.2528 0.3783
vn 0.9142 -0.3370 0.2252
vn 0.9089 -0.4089 0.0813
vn 0.8674 -0.4881 -0.0971
vn -0.0218 0.9805 0.1951
vn -0.0294 0.8311 0.5553
vn 0.0004 0.5556 0.8315
vn 0.0629 0.1947 0.9788
vn 0.1472 -0.1930 0.9701
vn 0.2378 -0.5396 0.8076
vn 0.3189 -0.7881 0.5266
vn 0.3791 -0.9076 0.1805
vn 0.4129 -0.8933 -0.1777
vn 0.4186 -0.7551 -0.5045
vn 0.3959 -0.5102 -0.7635
vn 0.3458 -0.1831 -0.9203
vn 0.2720 0.1878 -0.9438
vn 0.1835 0.5461 -0.8174
vn 0.0946 0.8277 -0.5531
vn 0.0218 0.9805 -0.1951
vn 0.1949 0.6165 0.7628
vn 0.2321 0.2754 0.9329
vn 0.2392 -0.1024 0.9655
vn 0.2157 -0.4668 0.8577
vn 0.1637 -0.7673 0.6201
vn 0.0895 -0.9552 0.2819
vn 0.0044 -0.9944 -0.1055
vn -0.0773 -0.8757 -0.4766
vn -0.1420 -0.6222 -0.7699
vn -0.1804 -0.2784 -0.9434
vn -0.1877 0.1036 -0.9767
vn -0.1634 0.4716 -0.8666
vn -0.1100 0.7730 -0.6248
vn -0.0346 0.9585 -0.2829
vn 0.0508 0.9931 0.1054
vn 0.1316 0.8707 0.4739
vn 0.3791 0.9076 0.1805
vn 0.3189 0.7881 0.5266
vn 0.2378 0.5396 0.8076
vn 0.1472 0.1930 0.9701
vn 0.0629 -0.1947 0.9788
vn 0.0004 -0.5556 0.8315
vn -0.0294 -0.8311 0.5553
vn -0.0218 -0.9806 0.1950
vn 0.0218 -0.9806 -0.1950
vn 0.0946 -0.8277 -0.5531
vn 0.1835 -0.5461 -0.8174
vn 0.2720 -0.1878 -0.9438
vn 0.3458 0.1831 -0.9203
vn 0.3959 0.5102 -0.7635
vn 0.4186 0.7551 -0.5045
vn 0.4129 0.8933 -0.1777
usemtl Material
s 0
f 1//1 3//1 4//1 2//1
f 3//2 5//2 6//2 4//2
f 5//3 7//3 8//3 6//3
f 7//4 9//4 10//4 8//4
f 9//5 11//5 12//5 10//5
f 11//6 13//6 14//6 12//6
f 13//7 15//7 16//7 14//7
f 15//8 17//8 18//8 16//8
f 17//9 19//9 20//9 18//9
f 19//10 21//10 22//10 20//10
f 21//11 23//11 24//11 22//11
f 23//12 25//12 26//12 24//12
f 25//13 27//13 28//13 26//13
f 27//14 29//14 30//14 28//14
f 29//15 31//15 32//15 30//15
f 31//16 1//16 2//16 32//16
f 33//1 35//1 36//1 34//1
f 35//2 37//2 38//2 36//2
f 37//3 39//3 40//3 38//3
f 39//4 41//4 42//4 40//4
f 41//5 43//5 44//5 42//5
f 43//6 45//6 46//6 44//6
f 45//7 47//7 48//7 46//7
f 47//8 49//8 50//8 48//8
f 49//9 51//9 52//9 50//9
f 51//10 53//10 54//10 52//10
f 53//11 55//11 56//11 54//11
f 55//12 57//12 58//12 56//12
f 57//13 59//13 60//13 58//13
f 59//14 61//14 62//14 60//14
f 61//15 63//15 64//15 62//15
f 63//16 33//16 34//16 64//16
f 65//1 67//1 68//1 66//1
f 67//2 69//2 70//2 68//2
f 69//3 71//3 72//3 70//3
f 71//4 73//4 74//4 72//4
f 73//5 75//5 76//5 74//5
f 75//6 77//6 78//6 76//6
f 77//7 79//7 80//7 78//7
f 79//8 81//8 82//8 80//8
f 81//9 83//9 84//9 82//9
f 83//10 85//10 86//10 84//10
f 85//11 87//11 88//11 86//11
f 87//12 89//12 90//12 88//12
f 89//13 91//13 92//13 90//13
f 91//14 93//14 94//14 92//14
f 93//15 95//15 96//15 94//15
f 95//16 65//16 66//16 96//16
f 97//1 99//1 100//1 98//1
f 99//2 101//2 102//2 100//2
f 101//3 103//3 104//3 102//3
f 103//4 105//4 106//4 104//4
f 105//5 107//5 108//5 106//5
f 107//6 109//6 110//6 108//6
f 109//7 111//7 112//7 110//7
f 111//8 113//8 114//8 112//8
f 113//9 115//9 116//9 114//9
f 115//10 117//10 118//10 116//10
f 117//11 119//11 120//11 118//11
f 119//12 121//12 122//12 120//12
f 121//13 123//13 124//13 122//13
f 123//14 125//14 126//14 124//14
f 125//15 127//15 128//15 126//15
f 127//16 97//16 98//16 128//16
f 129//1 131//1 132//1 130//1
f 131//2 133//2 134//2 132//2
f 133//3 135//3 136//3 134//3
f 135//4 137//4 138//4 136//4
f 137//5 139//5 140//5 138//5
f 139//6 141//6 142//6 140//6
f 141//7 143//7 144//7 142//7
f 143//8 145//8 146//8 144//8
f 145//9 147//9 148//9 146//9
f 147//10 149//10 150//10 148//10
f 149//11 151//11 152//11 150//11
f 151//12 153//12 154//12 152//12
f 153//13 155//13 156//13 154//13
f 155//14 157//14 158//14 156//14
f 157//15 159//15 160//15 158//15
f 159//16 129//16 130//16 160//16
f 161//1 163//1 164//1 162//1
f 163//2 165//2 166//2 164//2
f 165//3 167//3 168//3 166//3
f 167//4 169//4 170//4 168//4
f 169//5 171//5 172//5 170//5
f 171//6 173//6 174//6 172//6
f 173//7 175//7 176//7 174//7
f 175//8 177//8 178//8 176//8
f 177//9 179//9 180//9 178//9
f 179//10 181//10 182//10 180//10
f 181//11 183//11 184//11 182//11
f 183//12 185//12 186//12 184//12
f 185//13 187//13 188//13 186//13
f 187//14 189//14 190//14 188//14
f 189//15 191//15 192//15 190//15
f 191//16 161//16 162//16 192//16
f 193//1 195//1 196//1 194//1
f 195//2 197//2 198//2 196//2
f 197//3 199//3 200//3 198//3
f 199//4 201//4 202//4 200//4
f 201//5 203//5 204//5 202//5
f 203//6 205//6 206//6 204//6
f 205//7 207//7 208//7 206//7
f 207//8 209//8 210//8 208//8
f 209//9 211//9 212//9 210//9
f 211//10 213//10 214//10 212//10
f 213//11 215//11 216//11 214//11
f 215//12 217//12 218//12 216//12
f 217//13 219//13 220//13 218//13
f 219//14 221//14 222//14 220//14
f 221//15 223//15 224//15 222//15
f 223//16 193//16 194//16 224//16
f 225//1 227//1 228//1 226//1
f 227//2 229//2 230//2 228//2
f 229//3 231//3 232//3 230//3
f 231//4 233//4 234//4 232//4
f 233//5 235//5 236//5 234//5
f 235//6 237//6 238//6 236//6
f 237//7 239//7 240//7 238//7
f 239//8 241//8 242//8 240//8
f 241//9 243//9 244//9 242//9
f 243//10 245//10 246//10 244//10
f 245//11 247//11 248//11 246//11
f 247//12 249//12 250//12 248//12
f 249//13 251//13 252//13 250//13
f 251//14 253//14 254//14 252//14
f 253//15 255//15 256//15 254//15
f 255//16 225//16 226//16 256//16
f 257//1 259//1 260//1 258//1
f 259//2 261//2 262//2 260//2
f 261//3 263//3 264//3 262//3
f 263//4 265//4 266//4 264//4
f 265//5 267//5 268//5 266//5
f 267//6 269//6 270//6 268//6
f 269//7 271//7 272//7 270//7
f 271//8 273//8 274//8 272//8
f 273//9 275//9 276//9 274//9
f 275//10 277//10 278//10 276//10
f 277//11 279//11 280//11 278//11
f 279//12 281//12 282//12 280//12
f 281//13 283//13 284//13 282//13
f 283//14 285//14 286//14 284//14
f 285//15 287//15 288//15 286//15
f 287//16 257//16 258//16 288//16
f 289//1 291//1 292//1 290//1
f 291//2 293//2 294//2 292//2
f 293//3 295//3 296//3 294//3
f 295//4 297//4 298//4 296//4
f 297//5 299//5 300//5 298//5
f 299//6 301//6 302//6 300//6
f 301//7 303//7 304//7 302//7
f 303//8 305//8 306//8 304//8
f 305//9 307//9 308//9 306//9
f 307//10 309//10 310//10 308//10
f 309//11 311//11 312//11 310//11
f 311//12 313//12 314//12 312//12
f 313//13 315//13 316//13 314//13
f 315//14 317//14 318//14 316//14
f 317//15 319//15 320//15 318//15
f 319//16 289//16 290//16 320//16
f 321//1 323//1 324//1 322//1
f 323//2 325//2 326//2 324//2
f 325//3 327//3 328//3 326//3
f 327//4 329//4 330//4 328//4
f 329//5 331//5 332//5 330//5
f 331//6 333//6 334//6 332//6
f 333//7 335//7 336//7 334//7
f 335//8 337//8 338//8 336//8
f 337//9 339//9 340//9 338//9
f 339//10 341//10 342//10 340//10
f 341//11 343//11 344//11 342//11
f 343//12 345//12 346//12 344//12
f 345//13 347//13 348//13 346//13
f 347//14 349//14 350//14 348//14
f 349//15 351//15 352//15 350//15
f 351//16 321//16 322//16 352//16
f 353//1 355//1 356//1 354//1
f 355//2 357//2 358//2 356//2
f 357//3 359//3 360//3 358//3
f 359//4 361//4 362//4 360//4
f 361//5 363//5 364//5 362//5
f 363//6 365//6 366//6 364//6
f 365//7 367//7 368//7 366//7
f 367//8 369//8 370//8 368//8
f 369//9 371//9 372//9 370//9
f 371//10 373//10 374//10 372//10
f 373//11 375//11 376//11 374//11
f 375//12 377//12 378//12 376//12
f 377//13 379//13 380//13 378//13
f 379//14 381//14 382//14 380//14
f 381//15 383//15 384//15 382//15
f 383//16 353//16 354//16 384//16
f 385//17 19//17 21//17
f 385//17 21//17 23//17
f 385//17 23//17 25//17
f 385//17 25//17 27//17
f 385//17 27//17 29//17
f 385//17 29//17 31//17
f 385//17 31//17 1//17
f 385//17 1//17 3//17
f 385//17 3//17 5//17
f 385//17 5//17 7//17
f 385//17 7//17 9//17
f 385//17 9//17 11//17
f 385//17 11//17 13//17
f 385//17 13//17 15//17
f 385//17 15//17 17//17
f 385//17 17//17 19//17
f 20//18 395//18 396//18 22//18
f 22//18 396//18 397//18 24//18
f 24//18 397//18 398//18 26//18
f 26//18 398//18 399//18 28//18
f 28//18 399//18 400//18 30//18
f 30//18 400//18 401//18 32//18
f 32//18 401//18 386//18 2//18
f 2//18 386//18 387//18 4//18
f 4//18 387//18 388//18 6//18
f 6//18 388//18 389//18 8//18
f 8//18 389//18 390//18 10//18
f 10//18 390//18 391//18 12//18
f 12//18 391//18 392//18 14//18
f 14//18 392//18 393//18 16//18
f 16//18 393//18 394//18 18//18
f 18//18 394//18 395//18 20//18
f 386//19 51//19 53//19 387//19
f 387//20 53//20 55//20 388//20
f 388//21 55//21 57//21 389//21
f 389//22 57//22 59//22 390//22
f 390//23 59//23 61//23 391//23
f 391//24 61//24 63//24 392//24
f 392//25 63//25 33//25 393//25
f 393//26 33//26 35//26 394//26
f 394//27 35//27 37//27 395//27
f 395//28 37//28 39//28 396//28
f 396//29 39//29 41//29 397//29
f 397//30 41//30 43//30 398//30
f 398//31 43//31 45//31 399//31
f 399//32 45//32 47//32 400//32
f 400//33 47//33 49//33 401//33
f 401//34 49//34 51//34 386//34
f 52//35 83//35 85//35 54//35
f 54//36 85//36 87//36 56//36
f 56//37 87//37 89//37 58//37
f 58//38 89//38 91//38 60//38
f 60//39 91//39 93//39 62//39
f 62//40 93//40 95//40 64//40
f 64//41 95//41 65//41 34//41
f 34//42 65//42 67//42 36//42
f 36//43 67//43 69//43 38//43
f 38//44 69//44 71//44 40//44
f 40//45 71//45 73//45 42//45
f 42//46 73//46 75//46 44//46
f 44//47 75//47 77//47 46//47
f 46//48 77//48 79//48 48//48
f 48//49 79//49 81//49 50//49
f 50//50 81//50 83//50 52//50
f 84//18 411//18 412//18 86//18
f 86//18 412//18 413//18 88//18
f 88//18 413//18 414//18 90//18
f 90//18 414//18 415//18 92//18
f 92//17 415//17 416//17 94//17
f 94//17 416//17 417//17 96//17
f 96//17 417//17 402//17 66//17
f 66//17 402//17 403//17 68//17
f 68//17 403//17 404//17 70//17
f 70//17 404//17 405//17 72//17
f 72//18 405//18 406//18 74//18
f 74//18 406//18 407//18 76//18
f 76//18 407//18 408//18 78//18
f 78//18 408//18 409//18 80//18
f 80//18 409//18 410//18 82//18
f 82//18 410//18 411//18 84//18
f 402//19 115//19 117//19 403//19
f 403//20 117//20 119//20 404//20
f 404//21 119//21 121//21 405//21
f 405//22 121//22 123//22 406//22
f 406//23 123//23 125//23 407//23
f 407//24 125//24 127//24 408//24
f 408//25 127//25 97//25 409//25
f 409//26 97//26 99//26 410//26
f 410//27 99//27 101//27 411//27
f 411//28 101//28 103//28 412//28
f 412//29 103//29 105//29 413//29
f 413//30 105//30 107//30 414//30
f 414//31 107//31 109//31 415//31
f 415//32 109//32 111//32 416//32
f 416//33 111//33 113//33 417//33
f 417//34 113//34 115//34 402//34
f 116//17 147//17 149//17 118//17
f 118//17 149//17 151//17 120//17
f 120//17 151//17 153//17 122//17
f 122//17 153//17 155//17 124//17
f 124//17 155//17 157//17 126//17
f 126//17 157//17 159//17 128//17
f 128//17 159//17 129//17 98//17
f 98//17 129//17 131//17 100//17
f 100//17 131//17 133//17 102//17
f 102//17 133//17 135//17 104//17
f 104//17 135//17 137//17 106//17
f 106//17 137//17 139//17 108//17
f 108//17 139//17 141//17 110//17
f 110//17 141//17 143//17 112//17
f 112//17 143//17 145//17 114//17
f 114//17 145//17 147//17 116//17
f 148//10 179//10 181//10 150//10
f 150//11 181//11 183//11 152//11
f 152//12 183//12 185//12 154//12
f 154//13 185//13 187//13 156//13
f 156//14 187//14 189//14 158//14
f 158//15 189//15 191//15 160//15
f 160//16 191//16 161//16 130//16
f 130//1 161//1 163//1 132//1
f 132//2 163//2 165//2 134//2
f 134//3 165//3 167//3 136//3
f 136//4 167//4 169//4 138//4
f 138//5 169//5 171//5 140//5
f 140//6 171//6 173//6 142//6
f 142//7 173//7 175//7 144//7
f 144//8 175//8 177//8 146//8
f 146//9 177//9 179//9 148//9
f 418//18 182//18 180//18
f 418//18 184//18 182//18
f 418//18 186//18 184//18
f 418//18 188//18 186//18
f 418//18 190//18 188//18
f 418//18 192//18 190//18
f 418//18 162//18 192//18
f 418//18 164//18 162//18
f 418//18 166//18 164//18
f 418//18 168//18 166//18
f 418//18 170//18 168//18
f 418//18 172//18 170//18
f 418//18 174//18 172//18
f 418//18 176//18 174//18
f 418//18 178//18 176//18
f 418//18 180//18 178//18
f 419//17 211//17 213//17
f 419//17 213//17 215//17
f 419//17 215//17 217//17
f 419//17 217//17 219//17
f 419//17 219//17 221//17
f 419//17 221//17 223//17
f 419//17 223//17 193//17
f 419//17 193//17 195//17
f 419//17 195//17 197//17
f 419//17 197//17 199//17
f 419//17 199//17 201//17
f 419//17 201//17 203//17
f 419//17 203//17 205//17
f 419//17 205//17 207//17
f 419//17 207//17 209//17
f 419//17 209//17 211//17
f 420//17 275//17 277//17
f 420//17 277//17 279//17
f 420//17 279//17 281//17
f 420//17 281//17 283//17
f 420//17 283//17 285//17
f 420//17 285//17 287//17
f 420//17 287//17 257//17
f 420//17 257//17 259//17
f 420//17 259//17 261//17
f 420//17 261//17 263//17
f 420//17 263//17 265//17
f 420//17 265//17 267//17
f 420//17 267//17 269//17
f 420//17 269//17 271//17
f 420//17 271//17 273//17
f 420//17 273//17 275//17
f 421//17 339//17 341//17
f 421//17 341//17 343//17
f 421//17 343//17 345//17
f 421//17 345//17 347//17
f 421//17 347//17 349//17
f 421//17 349//17 351//17
f 421//17 351//17 321//17
f 421//17 321//17 323//17
f 421//17 323//17 325//17
f 421//17 325//17 327//17
f 421//17 327//17 329//17
f 421//17 329//17 331//17
f 421//17 331//17 333//17
f 421//17 333//17 335//17
f 421//17 335//17 337//17
f 421//17 337//17 339//17
f 212//51 243//51 245//51 214//51
f 214//52 245//52 247//52 216//52
f 216//53 247//53 249//53 218//53
f 218//54 249//54 251//54 220//54
f 220//55 251//55 253//55 222//55
f 222//56 253//56 255//56 224//56
f 224//57 255//57 225//57 194//57
f 194//58 225//58 227//58 196//58
f 196//59 227//59 229//59 198//59
f 198//60 229//60 231//60 200//60
f 200//61 231//61 233//61 202//61
f 202//62 233//62 235//62 204//62
f 204//63 235//63 237//63 206//63
f 206//64 237//64 239//64 208//64
f 208//65 239//65 241//65 210//65
f 210//66 241//66 243//66 212//66
f 276//67 307//67 309//67 278//67
f 278//68 309//68 311//68 280//68
f 280//69 311//69 313//69 282//69
f 282//70 313//70 315//70 284//70
f 284//71 315//71 317//71 286//71
f 286//72 317//72 319//72 288//72
f 288//73 319//73 289//73 258//73
f 258//74 289//74 291//74 260//74
f 260//75 291//75 293//75 262//75
f 262//76 293//76 295//76 264//76
f 264//77 295//77 297//77 266//77
f 266//78 297//78 299//78 268//78
f 268//79 299//79 301//79 270//79
f 270//80 301//80 303//80 272//80
f 272//81 303//81 305//81 274//81
f 274//82 305//82 307//82 276//82
f 340//83 371//83 373//83 342//83
f 342//84 373//84 375//84 344//84
f 344//85 375//85 377//85 346//85
f 346//86 377//86 379//86 348//86
f 348//87 379//87 381//87 350//87
f 350//88 381//88 383//88 352//88
f 352//89 383//89 353//89 322//89
f 322//90 353//90 355//90 324//90
f 324//91 355//91 357//91 326//91
f 326//92 357//92 359//92 328//92
f 328//93 359//93 361//93 330//93
f 330//94 361//94 363//94 332//94
f 332//95 363//95 365//95 334//95
f 334//96 365//96 367//96 336//96
f 336//97 367//97 369//97 338//97
f 338//98 369//98 371//98 340//98
f 422//18 246//18 244//18
f 422//18 248//18 246//18
f 422//18 250//18 248//18
f 422//18 252//18 250//18
f 422//18 254//18 252//18
f 422//18 256//18 254//18
f 422//18 226//18 256//18
f 422//18 228//18 226//18
f 422//18 230//18 228//18
f 422//18 232//18 230//18
f 422//18 234//18 232//18
f 422//18 236//18 234//18
f 422//18 238//18 236//18
f 422//18 240//18 238//18
f 422//18 242//18 240//18
f 422//18 244//18 242//18
f 423//18 310//18 308//18
f 423//18 312//18 310//18
f 423//18 314//18 312//18
f 423//18 316//18 314//18
f 423//18 318//18 316//18
f 423//18 320//18 318//18
f 423//18 290//18 320//18
f 423//18 292//18 290//18
f 423//18 294//18 292//18
f 423//18 296//18 294//18
f 423//18 298//18 296//18
f 423//18 300//18 298//18
f 423//18 302//18 300//18
f 423//18 304//18 302//18
f 423//18 306//18 304//18
f 423//18 308//18 306//18
f 424//18 374//18 372//18
f 424//18 376//18 374//18
f 424//18 378//18 376//18
f 424//18 380//18 378//18
f 424//18 382//18 380//18
f 424//18 384//18 382//18
f 424//18 354//18 384//18
f 424//18 356//18 354//18
f 424//18 358//18 356//18
f 424//18 360//18 358//18
f 424//18 362//18 360//18
f 424//18 364//18 362//18
f 424//18 366//18 364//18
f 424//18 368//18 366//18
f 424//18 370//18 368//18
f 424//18 372//18 370//18
f 193//99 195//99 243//99 241//99
f 195//100 197//100 245//100 243//100
f 197//101 199//101 247//101 245//101
f 199//102 201//102 249//102 247//102
f 201//103 203//103 251//103 249//103
f 203//104 205//104 253//104 251//104
f 205//105 207//105 255//105 253//105
f 207//106 209//106 225//106 255//106
f 209//107 211//107 227//107 225//107
f 211//108 213//108 229//108 227//108
f 213//109 215//109 231//109 229//109
f 215//110 217//110 233//110 231//110
f 217//111 219//111 235//111 233//111
f 219//112 221//112 237//112 235//112
f 221//113 223//113 239//113 237//113
f 223//114 193//114 241//114 239//114
f 257//115 259//115 299//115 297//115
f 259//116 261//116 301//116 299//116
f 261//117 263//117 303//117 301//117
f 263//118 265//118 305//118 303//118
f 265//119 267//119 307//119 305//119
f 267//120 269//120 309//120 307//120
f 269//121 271//121 311//121 309//121
f 271//122 273//122 313//122 311//122
f 273//123 275//123 315//123 313//123
f 275//124 277//124 317//124 315//124
f 277//125 279//125 319//125 317//125
f 279//126 281//126 289//126 319//126
f 281//127 283//127 291//127 289//127
f 283//128 285//128 293//128 291//128
f 285//129 287//129 295//129 293//129
f 287//130 257//130 297//130 295//130
f 321//131 323//131 371//131 369//131
f 323//132 325//132 373//132 371//132
f 325//133 327//133 375//133 373//133
f 327//134 329//134 377//134 375//134
f 329//135 331//135 379//135 377//135
f 331//136 333//136 381//136 379//136
f 333//137 335//137 383//137 381//137
f 335//138 337//138 353//138 383//138
f 337//139 339//139 355//139 353//139
f 339//140 341//140 357//140 355//140
f 341//141 343//141 359//141 357//141
f 343//142 345//142 361//142 359//142
f 345//143 347//143 363//143 361//143
f 347//144 349//144 365//144 363//144
f 349//145 351//145 367//145 365//145
f 351//146 321//146 369//146 367//146
