# Blender 5.1.1
# www.blender.org
mtllib space ship .mtl
o Cylinder.001
v -1.228286 0.756221 -2.099509
v -1.228286 0.451748 -1.054012
v -1.066903 0.740327 -2.099509
v -1.126302 0.441703 -1.054012
v -0.911721 0.693253 -2.099509
v -1.028239 0.411956 -1.054012
v -0.768706 0.616809 -2.099509
v -0.937862 0.363649 -1.054012
v -0.643351 0.513934 -2.099509
v -0.858647 0.298638 -1.054012
v -0.540475 0.388579 -2.099509
v -0.793636 0.219423 -1.054012
v -0.464032 0.245564 -2.099509
v -0.745329 0.129047 -1.054012
v -0.416958 0.090382 -2.099509
v -0.715582 0.030983 -1.054012
v -0.401063 -0.071001 -2.099509
v -0.705537 -0.071000 -1.054012
v -0.416958 -0.232384 -2.099509
v -0.715582 -0.172983 -1.054012
v -0.464032 -0.387565 -2.099509
v -0.745329 -0.271047 -1.054012
v -0.540475 -0.530581 -2.099509
v -0.793636 -0.361424 -1.054012
v -0.643351 -0.655935 -2.099509
v -0.858647 -0.440639 -1.054012
v -0.768706 -0.758811 -2.099509
v -0.937862 -0.505650 -1.054012
v -0.911722 -0.835254 -2.099509
v -1.028239 -0.553957 -1.054012
v -1.066903 -0.882328 -2.099509
v -1.126303 -0.583704 -1.054012
v -1.228286 -0.898223 -2.099509
v -1.228286 -0.593749 -1.054012
v -1.389669 -0.882328 -2.099509
v -1.330269 -0.583704 -1.054012
v -1.544850 -0.835254 -2.099509
v -1.428333 -0.553957 -1.054012
v -1.687866 -0.758810 -2.099509
v -1.518709 -0.505650 -1.054012
v -1.813221 -0.655935 -2.099509
v -1.597925 -0.440639 -1.054012
v -1.916096 -0.530580 -2.099509
v -1.662935 -0.361423 -1.054012
v -1.992540 -0.387564 -2.099509
v -1.711242 -0.271047 -1.054012
v -2.039613 -0.232383 -2.099509
v -1.740989 -0.172983 -1.054012
v -2.055508 -0.071000 -2.099509
v -1.751034 -0.071000 -1.054012
v -2.039613 0.090383 -2.099509
v -1.740989 0.030983 -1.054012
v -1.992539 0.245564 -2.099509
v -1.711242 0.129047 -1.054012
v -1.916095 0.388580 -2.099509
v -1.662935 0.219423 -1.054012
v -1.813219 0.513935 -2.099509
v -1.597924 0.298639 -1.054012
v -1.687865 0.616810 -2.099509
v -1.518708 0.363649 -1.054012
v -1.544849 0.693254 -2.099509
v -1.428332 0.411956 -1.054012
v -1.389668 0.740327 -2.099509
v -1.330268 0.441703 -1.054012
vn 0.0941 0.9559 0.2784
vn 0.2788 0.9191 0.2784
vn 0.4528 0.8471 0.2784
vn 0.6093 0.7425 0.2784
vn 0.7425 0.6093 0.2784
vn 0.8471 0.4528 0.2784
vn 0.9191 0.2788 0.2784
vn 0.9558 0.0941 0.2784
vn 0.9558 -0.0941 0.2784
vn 0.9191 -0.2788 0.2784
vn 0.8471 -0.4528 0.2784
vn 0.7425 -0.6093 0.2784
vn 0.6093 -0.7425 0.2784
vn 0.4528 -0.8471 0.2784
vn 0.2788 -0.9191 0.2784
vn 0.0941 -0.9559 0.2784
vn -0.0941 -0.9558 0.2784
vn -0.2788 -0.9191 0.2784
vn -0.4528 -0.8471 0.2784
vn -0.6093 -0.7425 0.2784
vn -0.7425 -0.6093 0.2784
vn -0.8471 -0.4528 0.2784
vn -0.9191 -0.2788 0.2784
vn -0.9559 -0.0941 0.2784
vn -0.9558 0.0941 0.2784
vn -0.9191 0.2788 0.2784
vn -0.8471 0.4528 0.2784
vn -0.7425 0.6093 0.2784
vn -0.6093 0.7425 0.2784
vn -0.4528 0.8471 0.2784
vn -0.0000 -0.0000 1.0000
vn -0.0941 0.9559 0.2784
vn -0.2788 0.9191 0.2784
vn -0.0000 -0.0000 -1.0000
vn 0.0941 0.9558 0.2784
vn 0.9559 0.0941 0.2784
vn 0.0941 -0.9558 0.2784
vn -0.9559 0.0941 0.2784
vn -0.0941 0.9558 0.2784
vt 0.195143 0.734987
vt 0.017580 0.773757
vt 0.017580 0.726243
vt 0.195143 0.765013
vt 0.036119 0.820358
vt 0.206859 0.794462
vt 0.072485 0.864256
vt 0.229839 0.822202
vt 0.125280 0.903762
vt 0.263202 0.847167
vt 0.192475 0.937360
vt 0.305665 0.868399
vt 0.271488 0.963757
vt 0.355596 0.885080
vt 0.359283 0.981940
vt 0.411076 0.896571
vt 0.452486 0.991210
vt 0.469974 0.902428
vt 0.547514 0.991210
vt 0.530026 0.902428
vt 0.640716 0.981941
vt 0.644404 0.885080
vt 0.728511 0.963758
vt 0.807525 0.937360
vt 0.694335 0.868399
vt 0.874720 0.903762
vt 0.770160 0.822202
vt 0.927515 0.864256
vt 0.963881 0.820358
vt 0.804857 0.765013
vt 0.982420 0.773757
vt 0.982420 0.726243
vt 0.804856 0.734987
vt 0.963881 0.679642
vt 0.793141 0.705538
vt 0.927515 0.635744
vt 0.736797 0.652833
vt 0.874720 0.596238
vt 0.807525 0.562640
vt 0.694335 0.631601
vt 0.728511 0.536242
vt 0.588923 0.603429
vt 0.640716 0.518060
vt 0.547514 0.508790
vt 0.530025 0.597572
vt 0.452485 0.508790
vt 0.411076 0.603429
vt 0.359283 0.518060
vt 0.271488 0.536243
vt 0.355596 0.614920
vt 0.192475 0.562640
vt 0.305665 0.631601
vt 0.125280 0.596238
vt 0.229839 0.677798
vt 0.072485 0.635744
vt 0.588923 0.896571
vt 0.206859 0.705539
vt 0.036119 0.679642
vt 0.963881 0.179642
vt 0.640716 0.481940
vt 0.036119 0.320358
vt 0.736797 0.847167
vt 0.793141 0.794462
vt 0.770160 0.677798
vt 0.644404 0.614920
vt 0.469974 0.597572
vt 0.263202 0.652833
vt 0.017580 0.273757
vt 0.017580 0.226243
vt 0.036119 0.179642
vt 0.072485 0.135744
vt 0.125280 0.096238
vt 0.192475 0.062640
vt 0.271488 0.036243
vt 0.359283 0.018060
vt 0.452486 0.008790
vt 0.547514 0.008790
vt 0.640716 0.018060
vt 0.728511 0.036242
vt 0.807525 0.062640
vt 0.874720 0.096238
vt 0.927515 0.135744
vt 0.982420 0.226243
vt 0.982420 0.273757
vt 0.963881 0.320358
vt 0.927515 0.364256
vt 0.874720 0.403763
vt 0.807525 0.437360
vt 0.728511 0.463758
vt 0.547514 0.491210
vt 0.452485 0.491210
vt 0.359283 0.481940
vt 0.271488 0.463758
vt 0.192475 0.437360
vt 0.125280 0.403762
vt 0.072485 0.364256
s 0
usemtl Material.002
f 2/1/1 3/2/1 1/3/1
f 4/4/2 5/5/2 3/2/2
f 6/6/3 7/7/3 5/5/3
f 8/8/4 9/9/4 7/7/4
f 10/10/5 11/11/5 9/9/5
f 12/12/6 13/13/6 11/11/6
f 14/14/7 15/15/7 13/13/7
f 16/16/8 17/17/8 15/15/8
f 18/18/9 19/19/9 17/17/9
f 20/20/10 21/21/10 19/19/10
f 21/21/11 24/22/11 23/23/11
f 24/22/12 25/24/12 23/23/12
f 26/25/13 27/26/13 25/24/13
f 27/26/14 30/27/14 29/28/14
f 30/27/15 31/29/15 29/28/15
f 31/29/16 34/30/16 33/31/16
f 34/30/17 35/32/17 33/31/17
f 36/33/18 37/34/18 35/32/18
f 38/35/19 39/36/19 37/34/19
f 39/36/20 42/37/20 41/38/20
f 42/37/21 43/39/21 41/38/21
f 44/40/22 45/41/22 43/39/22
f 45/41/23 48/42/23 47/43/23
f 48/42/24 49/44/24 47/43/24
f 50/45/25 51/46/25 49/44/25
f 51/46/26 54/47/26 53/48/26
f 54/47/27 55/49/27 53/48/27
f 56/50/28 57/51/28 55/49/28
f 58/52/29 59/53/29 57/51/29
f 59/53/30 62/54/30 61/55/30
f 38/35/31 22/56/31 6/6/31
f 64/57/32 1/3/32 63/58/32
f 61/55/33 64/57/33 63/58/33
f 31/59/34 47/60/34 63/61/34
f 2/1/35 4/4/35 3/2/35
f 4/4/2 6/6/2 5/5/2
f 6/6/3 8/8/3 7/7/3
f 8/8/4 10/10/4 9/9/4
f 10/10/5 12/12/5 11/11/5
f 12/12/6 14/14/6 13/13/6
f 14/14/7 16/16/7 15/15/7
f 16/16/36 18/18/36 17/17/36
f 18/18/9 20/20/9 19/19/9
f 20/20/10 22/56/10 21/21/10
f 21/21/11 22/56/11 24/22/11
f 24/22/12 26/25/12 25/24/12
f 26/25/13 28/62/13 27/26/13
f 27/26/14 28/62/14 30/27/14
f 30/27/15 32/63/15 31/29/15
f 31/29/37 32/63/37 34/30/37
f 34/30/17 36/33/17 35/32/17
f 36/33/18 38/35/18 37/34/18
f 38/35/19 40/64/19 39/36/19
f 39/36/20 40/64/20 42/37/20
f 42/37/21 44/40/21 43/39/21
f 44/40/22 46/65/22 45/41/22
f 45/41/23 46/65/23 48/42/23
f 48/42/24 50/45/24 49/44/24
f 50/45/38 52/66/38 51/46/38
f 51/46/26 52/66/26 54/47/26
f 54/47/27 56/50/27 55/49/27
f 56/50/28 58/52/28 57/51/28
f 58/52/29 60/67/29 59/53/29
f 59/53/30 60/67/30 62/54/30
f 6/6/31 4/4/31 2/1/31
f 2/1/31 64/57/31 62/54/31
f 62/54/31 60/67/31 58/52/31
f 58/52/31 56/50/31 54/47/31
f 54/47/31 52/66/31 50/45/31
f 50/45/31 48/42/31 46/65/31
f 46/65/31 44/40/31 42/37/31
f 42/37/31 40/64/31 38/35/31
f 38/35/31 36/33/31 34/30/31
f 34/30/31 32/63/31 30/27/31
f 30/27/31 28/62/31 26/25/31
f 26/25/31 24/22/31 22/56/31
f 22/56/31 20/20/31 18/18/31
f 18/18/31 16/16/31 14/14/31
f 14/14/31 12/12/31 10/10/31
f 10/10/31 8/8/31 6/6/31
f 6/6/31 2/1/31 62/54/31
f 62/54/31 58/52/31 54/47/31
f 54/47/31 50/45/31 46/65/31
f 46/65/31 42/37/31 38/35/31
f 38/35/31 34/30/31 30/27/31
f 30/27/31 26/25/31 22/56/31
f 22/56/31 18/18/31 14/14/31
f 14/14/31 10/10/31 6/6/31
f 6/6/31 62/54/31 54/47/31
f 54/47/31 46/65/31 38/35/31
f 38/35/31 30/27/31 22/56/31
f 22/56/31 14/14/31 6/6/31
f 6/6/31 54/47/31 38/35/31
f 64/57/39 2/1/39 1/3/39
f 61/55/33 62/54/33 64/57/33
f 63/61/34 1/68/34 3/69/34
f 3/69/34 5/70/34 7/71/34
f 7/71/34 9/72/34 11/73/34
f 11/73/34 13/74/34 15/75/34
f 15/75/34 17/76/34 19/77/34
f 19/77/34 21/78/34 23/79/34
f 23/79/34 25/80/34 27/81/34
f 27/81/34 29/82/34 31/59/34
f 31/59/34 33/83/34 35/84/34
f 35/84/34 37/85/34 39/86/34
f 39/86/34 41/87/34 43/88/34
f 43/88/34 45/89/34 47/60/34
f 47/60/34 49/90/34 51/91/34
f 51/91/34 53/92/34 55/93/34
f 55/93/34 57/94/34 59/95/34
f 59/95/34 61/96/34 63/61/34
f 63/61/34 3/69/34 7/71/34
f 7/71/34 11/73/34 15/75/34
f 15/75/34 19/77/34 23/79/34
f 23/79/34 27/81/34 31/59/34
f 31/59/34 35/84/34 39/86/34
f 39/86/34 43/88/34 47/60/34
f 47/60/34 51/91/34 55/93/34
f 55/93/34 59/95/34 63/61/34
f 63/61/34 7/71/34 15/75/34
f 15/75/34 23/79/34 31/59/34
f 31/59/34 39/86/34 47/60/34
f 47/60/34 55/93/34 63/61/34
f 63/61/34 15/75/34 31/59/34
o Cylinder
v 1.260906 0.756221 -2.099509
v 1.260906 0.451748 -1.054012
v 1.422289 0.740327 -2.099509
v 1.362890 0.441703 -1.054012
v 1.577471 0.693253 -2.099509
v 1.460953 0.411956 -1.054012
v 1.720486 0.616809 -2.099509
v 1.551330 0.363649 -1.054012
v 1.845841 0.513934 -2.099509
v 1.630545 0.298638 -1.054012
v 1.948717 0.388579 -2.099509
v 1.695556 0.219423 -1.054012
v 2.025160 0.245564 -2.099509
v 1.743863 0.129047 -1.054012
v 2.072234 0.090382 -2.099509
v 1.773610 0.030983 -1.054012
v 2.088129 -0.071001 -2.099509
v 1.783655 -0.071000 -1.054012
v 2.072234 -0.232384 -2.099509
v 1.773610 -0.172983 -1.054012
v 2.025160 -0.387565 -2.099509
v 1.743863 -0.271047 -1.054012
v 1.948717 -0.530581 -2.099509
v 1.695556 -0.361424 -1.054012
v 1.845841 -0.655935 -2.099509
v 1.630545 -0.440639 -1.054012
v 1.720486 -0.758811 -2.099509
v 1.551330 -0.505650 -1.054012
v 1.577470 -0.835254 -2.099509
v 1.460953 -0.553957 -1.054012
v 1.422289 -0.882328 -2.099509
v 1.362889 -0.583704 -1.054012
v 1.260906 -0.898223 -2.099509
v 1.260906 -0.593749 -1.054012
v 1.099523 -0.882328 -2.099509
v 1.158923 -0.583704 -1.054012
v 0.944342 -0.835254 -2.099509
v 1.060859 -0.553957 -1.054012
v 0.801326 -0.758810 -2.099509
v 0.970483 -0.505650 -1.054012
v 0.675971 -0.655935 -2.099509
v 0.891267 -0.440639 -1.054012
v 0.573096 -0.530580 -2.099509
v 0.826257 -0.361423 -1.054012
v 0.496652 -0.387564 -2.099509
v 0.777950 -0.271047 -1.054012
v 0.449579 -0.232383 -2.099509
v 0.748203 -0.172983 -1.054012
v 0.433684 -0.071000 -2.099509
v 0.738158 -0.071000 -1.054012
v 0.449579 0.090383 -2.099509
v 0.748203 0.030983 -1.054012
v 0.496653 0.245564 -2.099509
v 0.777950 0.129047 -1.054012
v 0.573097 0.388580 -2.099509
v 0.826257 0.219423 -1.054012
v 0.675973 0.513935 -2.099509
v 0.891268 0.298639 -1.054012
v 0.801327 0.616810 -2.099509
v 0.970483 0.363649 -1.054012
v 0.944343 0.693254 -2.099509
v 1.060860 0.411956 -1.054012
v 1.099524 0.740327 -2.099509
v 1.158924 0.441703 -1.054012
vn 0.0941 0.9559 0.2784
vn 0.2788 0.9191 0.2784
vn 0.4528 0.8471 0.2784
vn 0.6093 0.7425 0.2784
vn 0.7425 0.6093 0.2784
vn 0.8471 0.4528 0.2784
vn 0.9191 0.2788 0.2784
vn 0.9558 0.0941 0.2784
vn 0.9558 -0.0941 0.2784
vn 0.9191 -0.2788 0.2784
vn 0.8471 -0.4528 0.2784
vn 0.7425 -0.6093 0.2784
vn 0.6093 -0.7425 0.2784
vn 0.4528 -0.8471 0.2784
vn 0.2788 -0.9191 0.2784
vn 0.0941 -0.9559 0.2784
vn -0.0941 -0.9558 0.2784
vn -0.2788 -0.9191 0.2784
vn -0.4528 -0.8471 0.2784
vn -0.6093 -0.7425 0.2784
vn -0.7425 -0.6093 0.2784
vn -0.8471 -0.4528 0.2784
vn -0.9191 -0.2788 0.2784
vn -0.9559 -0.0941 0.2784
vn -0.9558 0.0941 0.2784
vn -0.9191 0.2788 0.2784
vn -0.8471 0.4528 0.2784
vn -0.7425 0.6093 0.2784
vn -0.6093 0.7425 0.2784
vn -0.4528 0.8471 0.2784
vn -0.0000 -0.0000 1.0000
vn -0.0941 0.9559 0.2784
vn -0.2788 0.9191 0.2784
vn -0.0000 -0.0000 -1.0000
vn 0.0941 0.9558 0.2784
vn 0.9559 0.0941 0.2784
vn 0.0941 -0.9558 0.2784
vn -0.9559 0.0941 0.2784
vn -0.0941 0.9558 0.2784
vt 0.195143 0.734987
vt 0.017580 0.773757
vt 0.017580 0.726243
vt 0.195143 0.765013
vt 0.036119 0.820358
vt 0.206859 0.794462
vt 0.072485 0.864256
vt 0.229839 0.822202
vt 0.125280 0.903762
vt 0.263202 0.847167
vt 0.192475 0.937360
vt 0.305665 0.868399
vt 0.271488 0.963757
vt 0.355596 0.885080
vt 0.359283 0.981940
vt 0.411076 0.896571
vt 0.452486 0.991210
vt 0.469974 0.902428
vt 0.547514 0.991210
vt 0.530026 0.902428
vt 0.640716 0.981941
vt 0.644404 0.885080
vt 0.728511 0.963758
vt 0.807525 0.937360
vt 0.694335 0.868399
vt 0.874720 0.903762
vt 0.770160 0.822202
vt 0.927515 0.864256
vt 0.963881 0.820358
vt 0.804857 0.765013
vt 0.982420 0.773757
vt 0.982420 0.726243
vt 0.804856 0.734987
vt 0.963881 0.679642
vt 0.793141 0.705538
vt 0.927515 0.635744
vt 0.736797 0.652833
vt 0.874720 0.596238
vt 0.807525 0.562640
vt 0.694335 0.631601
vt 0.728511 0.536242
vt 0.588923 0.603429
vt 0.640716 0.518060
vt 0.547514 0.508790
vt 0.530025 0.597572
vt 0.452485 0.508790
vt 0.411076 0.603429
vt 0.359283 0.518060
vt 0.271488 0.536243
vt 0.355596 0.614920
vt 0.192475 0.562640
vt 0.305665 0.631601
vt 0.125280 0.596238
vt 0.229839 0.677798
vt 0.072485 0.635744
vt 0.588923 0.896571
vt 0.206859 0.705539
vt 0.036119 0.679642
vt 0.963881 0.179642
vt 0.640716 0.481940
vt 0.036119 0.320358
vt 0.736797 0.847167
vt 0.793141 0.794462
vt 0.770160 0.677798
vt 0.644404 0.614920
vt 0.469974 0.597572
vt 0.263202 0.652833
vt 0.017580 0.273757
vt 0.017580 0.226243
vt 0.036119 0.179642
vt 0.072485 0.135744
vt 0.125280 0.096238
vt 0.192475 0.062640
vt 0.271488 0.036243
vt 0.359283 0.018060
vt 0.452486 0.008790
vt 0.547514 0.008790
vt 0.640716 0.018060
vt 0.728511 0.036242
vt 0.807525 0.062640
vt 0.874720 0.096238
vt 0.927515 0.135744
vt 0.982420 0.226243
vt 0.982420 0.273757
vt 0.963881 0.320358
vt 0.927515 0.364256
vt 0.874720 0.403763
vt 0.807525 0.437360
vt 0.728511 0.463758
vt 0.547514 0.491210
vt 0.452485 0.491210
vt 0.359283 0.481940
vt 0.271488 0.463758
vt 0.192475 0.437360
vt 0.125280 0.403762
vt 0.072485 0.364256
s 0
usemtl Material.001
f 66/97/40 67/98/40 65/99/40
f 68/100/41 69/101/41 67/98/41
f 70/102/42 71/103/42 69/101/42
f 72/104/43 73/105/43 71/103/43
f 74/106/44 75/107/44 73/105/44
f 76/108/45 77/109/45 75/107/45
f 78/110/46 79/111/46 77/109/46
f 80/112/47 81/113/47 79/111/47
f 82/114/48 83/115/48 81/113/48
f 84/116/49 85/117/49 83/115/49
f 85/117/50 88/118/50 87/119/50
f 88/118/51 89/120/51 87/119/51
f 90/121/52 91/122/52 89/120/52
f 91/122/53 94/123/53 93/124/53
f 94/123/54 95/125/54 93/124/54
f 95/125/55 98/126/55 97/127/55
f 98/126/56 99/128/56 97/127/56
f 100/129/57 101/130/57 99/128/57
f 102/131/58 103/132/58 101/130/58
f 103/132/59 106/133/59 105/134/59
f 106/133/60 107/135/60 105/134/60
f 108/136/61 109/137/61 107/135/61
f 109/137/62 112/138/62 111/139/62
f 112/138/63 113/140/63 111/139/63
f 114/141/64 115/142/64 113/140/64
f 115/142/65 118/143/65 117/144/65
f 118/143/66 119/145/66 117/144/66
f 120/146/67 121/147/67 119/145/67
f 122/148/68 123/149/68 121/147/68
f 123/149/69 126/150/69 125/151/69
f 102/131/70 86/152/70 70/102/70
f 128/153/71 65/99/71 127/154/71
f 125/151/72 128/153/72 127/154/72
f 95/155/73 111/156/73 127/157/73
f 66/97/74 68/100/74 67/98/74
f 68/100/41 70/102/41 69/101/41
f 70/102/42 72/104/42 71/103/42
f 72/104/43 74/106/43 73/105/43
f 74/106/44 76/108/44 75/107/44
f 76/108/45 78/110/45 77/109/45
f 78/110/46 80/112/46 79/111/46
f 80/112/75 82/114/75 81/113/75
f 82/114/48 84/116/48 83/115/48
f 84/116/49 86/152/49 85/117/49
f 85/117/50 86/152/50 88/118/50
f 88/118/51 90/121/51 89/120/51
f 90/121/52 92/158/52 91/122/52
f 91/122/53 92/158/53 94/123/53
f 94/123/54 96/159/54 95/125/54
f 95/125/76 96/159/76 98/126/76
f 98/126/56 100/129/56 99/128/56
f 100/129/57 102/131/57 101/130/57
f 102/131/58 104/160/58 103/132/58
f 103/132/59 104/160/59 106/133/59
f 106/133/60 108/136/60 107/135/60
f 108/136/61 110/161/61 109/137/61
f 109/137/62 110/161/62 112/138/62
f 112/138/63 114/141/63 113/140/63
f 114/141/77 116/162/77 115/142/77
f 115/142/65 116/162/65 118/143/65
f 118/143/66 120/146/66 119/145/66
f 120/146/67 122/148/67 121/147/67
f 122/148/68 124/163/68 123/149/68
f 123/149/69 124/163/69 126/150/69
f 70/102/70 68/100/70 66/97/70
f 66/97/70 128/153/70 126/150/70
f 126/150/70 124/163/70 122/148/70
f 122/148/70 120/146/70 118/143/70
f 118/143/70 116/162/70 114/141/70
f 114/141/70 112/138/70 110/161/70
f 110/161/70 108/136/70 106/133/70
f 106/133/70 104/160/70 102/131/70
f 102/131/70 100/129/70 98/126/70
f 98/126/70 96/159/70 94/123/70
f 94/123/70 92/158/70 90/121/70
f 90/121/70 88/118/70 86/152/70
f 86/152/70 84/116/70 82/114/70
f 82/114/70 80/112/70 78/110/70
f 78/110/70 76/108/70 74/106/70
f 74/106/70 72/104/70 70/102/70
f 70/102/70 66/97/70 126/150/70
f 126/150/70 122/148/70 118/143/70
f 118/143/70 114/141/70 110/161/70
f 110/161/70 106/133/70 102/131/70
f 102/131/70 98/126/70 94/123/70
f 94/123/70 90/121/70 86/152/70
f 86/152/70 82/114/70 78/110/70
f 78/110/70 74/106/70 70/102/70
f 70/102/70 126/150/70 118/143/70
f 118/143/70 110/161/70 102/131/70
f 102/131/70 94/123/70 86/152/70
f 86/152/70 78/110/70 70/102/70
f 70/102/70 118/143/70 102/131/70
f 128/153/78 66/97/78 65/99/78
f 125/151/72 126/150/72 128/153/72
f 127/157/73 65/164/73 67/165/73
f 67/165/73 69/166/73 71/167/73
f 71/167/73 73/168/73 75/169/73
f 75/169/73 77/170/73 79/171/73
f 79/171/73 81/172/73 83/173/73
f 83/173/73 85/174/73 87/175/73
f 87/175/73 89/176/73 91/177/73
f 91/177/73 93/178/73 95/155/73
f 95/155/73 97/179/73 99/180/73
f 99/180/73 101/181/73 103/182/73
f 103/182/73 105/183/73 107/184/73
f 107/184/73 109/185/73 111/156/73
f 111/156/73 113/186/73 115/187/73
f 115/187/73 117/188/73 119/189/73
f 119/189/73 121/190/73 123/191/73
f 123/191/73 125/192/73 127/157/73
f 127/157/73 67/165/73 71/167/73
f 71/167/73 75/169/73 79/171/73
f 79/171/73 83/173/73 87/175/73
f 87/175/73 91/177/73 95/155/73
f 95/155/73 99/180/73 103/182/73
f 103/182/73 107/184/73 111/156/73
f 111/156/73 115/187/73 119/189/73
f 119/189/73 123/191/73 127/157/73
f 127/157/73 71/167/73 79/171/73
f 79/171/73 87/175/73 95/155/73
f 95/155/73 103/182/73 111/156/73
f 111/156/73 119/189/73 127/157/73
f 127/157/73 79/171/73 95/155/73
o Cube
v 1.000000 -1.000000 -1.126850
v 1.000000 -1.000000 1.126850
v -1.000000 -1.000000 1.126850
v -1.000000 -1.000000 -1.126851
v 1.000000 1.000000 -1.126850
v 0.999999 1.000000 1.126851
v -1.000000 1.000000 1.126850
v -1.000000 1.000000 -1.126850
v 0.999999 -1.000000 2.759128
v -1.000001 -1.000000 2.759128
v 0.999999 1.095115 2.759129
v -1.000001 1.095115 2.759128
v 0.822435 -0.822437 4.195426
v -0.822438 -0.822437 4.195426
v 0.822435 0.917552 4.195426
v -0.822438 0.917552 4.195426
v 0.148944 -0.786625 5.892559
v -0.148948 -0.786625 5.892559
v 0.148944 -0.488732 5.892559
v -0.148948 -0.488732 5.892559
v 2.527960 -1.000000 -1.126850
v 2.527960 -1.000000 1.126850
v 2.527961 1.000000 -1.126850
v -2.527959 -1.000000 1.126850
v -2.527958 -1.000000 -1.126851
v -2.527958 1.000000 -1.126850
v 2.527958 -1.000000 2.759128
v 2.527957 1.000000 2.759129
v -2.527960 -1.000000 2.759128
v -2.527961 1.000000 2.759128
v 1.000000 0.756746 -1.126850
v -1.000000 0.756746 -1.126850
v 0.999999 0.756746 2.759129
v -1.000001 0.756746 2.759128
v 0.822435 0.622375 4.195426
v -0.822438 0.622375 4.195426
v 0.148944 -0.524964 5.892559
v -0.148948 -0.524964 5.892559
v 2.527961 0.756746 -1.126850
v 2.527958 0.756746 1.126851
v -2.527959 0.756746 1.126850
v -2.527958 0.756746 -1.126850
v 2.527957 0.756746 2.759129
v -2.527961 0.756746 2.759128
v 3.004624 0.758595 -1.126850
v 2.962383 0.998153 -1.126850
v 3.004621 0.758594 1.126851
v 2.962380 0.998152 1.126851
v -3.004622 0.758594 1.126850
v -2.962381 0.998152 1.126850
v -3.004621 0.758594 -1.126850
v -2.962380 0.998152 -1.126850
v 3.004619 0.758594 2.759129
v 2.962378 0.998152 2.759129
v -3.004623 0.758594 2.759128
v -2.962383 0.998152 2.759128
v 3.004624 0.758595 -1.126850
v 2.962383 0.998153 -1.126850
v 3.004621 0.758594 1.126851
v 2.962380 0.998152 1.126851
v 3.004619 0.758594 2.759129
v 2.962378 0.998152 2.759129
v -3.004622 0.758594 1.126850
v -2.962381 0.998152 1.126850
v -3.004621 0.758594 -1.126850
v -2.962380 0.998152 -1.126850
v -3.004623 0.758594 2.759128
v -2.962383 0.998152 2.759128
v 3.004624 0.758595 -1.126850
v 2.962383 0.998153 -1.126850
v 3.004621 0.758594 1.126851
v 2.962380 0.998152 1.126851
v 3.004619 0.758594 2.759129
v 2.962378 0.998152 2.759129
v -3.004622 0.758594 1.126850
v -2.962381 0.998152 1.126850
v -3.004621 0.758594 -1.126850
v -2.962380 0.998152 -1.126850
v -3.004623 0.758594 2.759128
v -2.962383 0.998152 2.759128
v 3.004624 0.758595 -1.126850
v 2.962383 0.998153 -1.126850
v 3.004621 0.758594 1.126851
v 2.962380 0.998152 1.126851
v 3.004619 0.758594 2.759129
v 2.962378 0.998152 2.759129
v 3.004624 0.758595 -1.126850
v 2.962383 0.998153 -1.126850
v 3.004621 0.758594 1.126851
v 2.962380 0.998152 1.126851
v 3.004619 0.758594 2.759129
v 2.962378 0.998152 2.759129
v 3.004624 0.758595 -1.126850
v 2.962383 0.998153 -1.126850
v 3.004621 0.758594 1.126851
v 2.962380 0.998152 1.126851
v 3.004619 0.758594 2.759129
v 2.962378 0.998152 2.759129
v 3.951414 0.956198 -1.093673
v 3.985207 1.147845 -1.093673
v 3.951411 0.956199 0.709288
v 3.951411 0.956199 2.015110
v 3.985203 1.147845 2.015110
v -3.004622 0.758594 1.126850
v -2.962381 0.998152 1.126850
v -3.004621 0.758594 -1.126850
v -2.962380 0.998152 -1.126850
v -3.004623 0.758594 2.759128
v -2.962383 0.998152 2.759128
v -3.951413 0.956198 0.713717
v -3.951412 0.956199 -1.089244
v -3.985204 1.147845 -1.089244
v -3.951414 0.956198 2.019539
v -3.985207 1.147844 2.019539
v 5.929477 0.656814 -1.728668
v 5.946373 0.752637 -1.728668
v 5.929475 0.656814 -0.827187
v 5.946372 0.752637 -0.827187
v 5.929475 0.656814 -0.174276
v 5.946371 0.752637 -0.174276
v -5.929477 0.656813 -0.913816
v -5.946373 0.752636 -0.913816
v -5.929476 0.656813 -1.815297
v -5.946372 0.752636 -1.815297
v -5.929478 0.656813 -0.260905
v -5.946374 0.752636 -0.260905
v 1.000000 1.000000 -1.126850
v 0.999999 1.095115 1.126851
v -1.000000 1.000000 -1.126850
v -1.000000 1.095115 1.126850
v 0.999999 1.307200 2.759129
v -1.000001 1.307200 2.759128
v 1.000000 1.138743 -1.126850
v 0.999999 1.138743 1.126851
v -1.000000 1.138743 1.126850
v -1.000000 1.138743 -1.126850
v 0.999999 1.138743 2.759129
v -1.000001 1.138743 2.759128
v 2.527961 1.138743 -1.126850
v 2.527958 1.138743 1.126851
v -2.527959 1.138743 1.126850
v -2.527958 1.138743 -1.126850
v 2.527957 1.138743 2.759129
v -2.527961 1.138743 2.759128
v 2.962383 1.136896 -1.126850
v 2.962380 1.136895 1.126851
v -2.962381 1.136896 1.126850
v -2.962380 1.136895 -1.126850
v 2.962378 1.136895 2.759129
v -2.962383 1.136896 2.759128
v 2.962383 1.136896 -1.126850
v 2.962380 1.136895 1.126851
v 2.962378 1.136895 2.759129
v 3.985207 1.286588 -1.093673
v 3.985204 1.286589 0.709288
v 3.985203 1.286589 2.015110
v -2.962381 1.136896 1.126850
v -2.962380 1.136895 -1.126850
v -2.962383 1.136896 2.759128
v -3.985205 1.286588 0.713717
v -3.985204 1.286588 -1.089244
v -3.985207 1.286588 2.019539
v 5.946373 0.891380 -1.728668
v 5.946372 0.891381 -0.827187
v 5.946371 0.891381 -0.174276
v -5.946373 0.891380 -0.913816
v -5.946372 0.891380 -1.815297
v -5.946374 0.891380 -0.260905
v 1.000000 -1.000000 0.000000
v -1.000000 -1.000000 -0.000000
v 1.000000 1.000000 0.000001
v -1.000000 1.000000 -0.000000
v 2.527960 -1.000000 0.000000
v -2.527958 -1.000000 -0.000000
v -2.527959 0.756746 -0.000000
v 2.527959 0.756746 0.000001
v 2.962381 0.998152 0.000001
v -2.962380 0.998152 -0.000000
v -3.004621 0.758594 -0.000000
v 3.004622 0.758594 0.000001
v 2.962381 0.998152 0.000001
v 3.004622 0.758594 0.000001
v -2.962380 0.998152 -0.000000
v -3.004621 0.758594 -0.000000
v 2.962381 0.998152 0.000001
v 3.004622 0.758594 0.000001
v -2.962380 0.998152 -0.000000
v -3.004621 0.758594 -0.000000
v 2.962381 0.998152 0.000001
v 3.004622 0.758594 0.000001
v 2.962381 0.998152 0.000001
v 3.004622 0.758594 0.000001
v 2.962381 0.998152 0.000001
v 3.004622 0.758594 0.000001
v 3.951413 0.956199 -0.192193
v -2.962380 0.998152 -0.000000
v -3.004621 0.758594 -0.000000
v -3.951412 0.956198 -0.187763
v 5.946372 0.752637 -1.277927
v 5.929476 0.656814 -1.277927
v -5.946373 0.752636 -1.364557
v -5.929476 0.656813 -1.364557
v 1.000000 1.000000 0.000001
v -1.000000 1.000000 -0.000000
v 1.000000 1.503857 0.000001
v -1.000000 1.503857 -0.000000
v 2.527959 1.503857 0.000001
v -2.527959 1.503857 -0.000000
v 2.962381 1.136896 0.000001
v -2.962380 1.136895 -0.000000
v 2.962381 1.136896 0.000001
v 3.985205 1.286589 -0.192193
v -2.962380 1.136895 -0.000000
v -3.985205 1.286588 -0.187763
v 5.946372 0.891381 -1.277927
v -5.946373 0.891380 -1.364557
v 0.000000 -1.000000 -1.126850
v 0.000000 1.000000 -1.126850
v -0.000001 -0.972473 2.981792
v -0.000001 1.307200 2.759129
v -0.000001 -0.822437 4.195426
v -0.000002 0.917552 4.195426
v -0.000002 -0.786625 5.892559
v -0.000002 -0.488732 5.892559
v -0.000002 -0.524964 5.892559
v 0.000000 0.756746 -1.126850
v 0.000000 1.000000 -1.126850
v -0.000001 1.307200 1.126851
v -0.000001 1.307200 2.759129
v -0.000000 1.000000 0.000000
v -0.500000 -1.000000 -1.126851
v -0.500000 1.000000 -1.126850
v -0.411717 -0.972473 2.981792
v -0.500001 1.307200 2.759128
v -0.411220 -0.822437 4.195426
v -0.411220 0.917552 4.195426
v -0.074475 -0.786625 5.892559
v -0.074475 -0.488732 5.892559
v -0.074475 -0.524964 5.892559
v -0.500000 0.756746 -1.126850
v -0.500000 1.000000 -1.126850
v -0.500000 1.307200 1.126850
v -0.500001 1.307200 2.759128
v -0.500000 1.000000 0.000000
v 0.500000 1.000000 0.000000
v 0.500000 -1.000000 -1.126850
v 0.500000 1.000000 -1.126850
v 0.411716 -0.972473 2.981792
v 0.499999 1.307200 2.759129
v 0.411217 -0.822437 4.195426
v 0.411217 0.917552 4.195426
v 0.074471 -0.786625 5.892559
v 0.074471 -0.488732 5.892559
v 0.074471 -0.524964 5.892559
v 0.500000 0.756746 -1.126850
v 0.500000 1.000000 -1.126850
v 0.499999 1.307200 1.126851
v 0.499999 1.307200 2.759129
v 0.250000 1.593663 -1.118163
v 0.000000 1.593663 -1.118163
v -0.250000 1.593663 -0.554738
v -0.000000 1.593663 -0.554738
v -0.250000 1.593663 -1.118163
v 0.250000 1.593663 -0.554738
v 0.250000 1.593663 -1.118163
v 0.000000 1.593663 -1.118163
v -0.250000 1.593663 -0.554738
v -0.000000 1.593663 -0.554738
v -0.250000 1.593663 -1.118163
v 0.250000 1.593663 -0.554738
v 0.125000 2.216444 -1.554335
v 0.000000 2.216444 -1.554335
v -0.125000 2.216444 -1.272623
v 0.000000 2.216444 -1.272623
v -0.125000 2.216444 -1.554335
v 0.125000 2.216444 -1.272623
v 0.882799 0.977915 3.707149
v -0.882802 0.977915 3.707148
v -0.882801 -0.882801 3.707148
v 0.882799 -0.882801 3.707148
v 0.882799 0.668055 3.707149
v -0.882802 0.668055 3.707148
v -0.000001 -0.910328 3.484484
v -0.000001 1.190000 3.707149
v -0.380645 -0.910328 3.484484
v -0.441402 1.190000 3.707148
v 0.441399 1.190000 3.707149
v 0.380643 -0.910328 3.484484
v 2.527958 -1.000000 2.759128
v 0.999999 -1.000000 2.759128
v 0.999999 0.756746 2.759129
v 2.527957 0.756746 2.759129
v 1.384454 -0.744175 3.259129
v 0.748152 -0.744175 3.259129
v 0.748152 0.500920 3.259129
v 1.384453 0.500920 3.259129
v -0.760934 -0.744174 3.259128
v -1.397236 -0.744174 3.259128
v -0.760934 0.500920 3.259128
v -1.397236 0.500920 3.259128
v 2.527961 0.756746 -1.126850
v 3.004624 0.758595 -1.126850
v 3.004621 0.758594 1.126851
v 2.527958 0.756746 1.126851
v 2.527957 0.756746 2.759129
v 2.527959 0.756746 0.000001
v 3.004619 0.758594 2.759129
v 3.004622 0.758594 0.000001
v 2.033276 -0.243246 -1.126850
v 2.509939 -0.241398 -1.126850
v 2.509936 -0.241398 1.126851
v 2.033274 -0.243246 1.126851
v 2.033273 -0.243246 2.759129
v 2.033275 -0.243246 0.000000
v 2.509935 -0.241399 2.759129
v 2.509938 -0.241398 0.000000
v -2.031836 -0.243246 1.126850
v -2.031837 -0.243246 2.759128
v -2.031835 -0.243246 -0.000000
v -2.031835 -0.243246 -1.126850
v -2.508498 -0.241398 1.126850
v -2.508500 -0.241398 2.759128
v -2.508497 -0.241399 -0.000000
v -2.508497 -0.241399 -1.126850
v 0.500001 1.317560 -2.126850
v 0.500001 1.439187 -2.126850
v -0.500000 1.317560 -2.126850
v -0.500000 1.439187 -2.126850
v 1.263981 1.317560 -2.126850
v 1.263981 1.439187 -2.126850
v -1.263979 1.317560 -2.126850
v -1.263979 1.439187 -2.126850
v 0.500000 -1.344140 -0.530326
v 0.500000 -1.344140 0.033099
v -0.250000 -1.344140 -1.093752
v -0.500000 -1.344140 -1.093752
v -0.250000 -1.344140 0.033099
v -0.500000 -1.344140 0.033099
v -0.500000 -1.344140 -0.530327
v -0.250000 -1.344140 0.849238
v -0.500000 -1.344140 0.849238
v 0.500000 -1.344140 0.849238
v 0.500000 -1.344140 -1.093752
v -0.250000 -1.344140 -0.530326
v 0.250000 -1.344140 -1.093752
v 0.000000 -1.344140 -1.093752
v 0.250000 -1.344140 0.033099
v -0.000000 -1.344140 0.033099
v 0.250000 -1.344140 0.849238
v -0.000000 -1.344140 0.849238
v 0.250000 -1.344140 -0.530326
v -0.000000 -1.344140 -0.530326
v 0.499999 -1.000000 2.759128
v -0.000001 -1.000000 2.759128
v -0.500001 -1.000000 2.759128
v -0.441401 -0.882801 3.707148
v 0.441399 -0.882801 3.707148
v -0.000001 -0.882801 3.707148
v -0.000001 -1.370727 3.031027
v -0.000001 -1.308581 3.533718
v 0.411716 -1.370727 3.031027
v -0.411717 -1.370727 3.031026
v -0.380645 -1.308581 3.533718
v 0.380643 -1.308581 3.533718
v -0.000001 -1.709201 3.072871
v -0.000001 -1.647056 3.575562
v 0.411716 -1.709201 3.072871
v -0.411717 -1.709201 3.072870
v -0.380645 -1.647056 3.575562
v 0.380643 -1.647056 3.575562
v 0.380643 -1.555462 4.982108
v -0.000001 -1.555462 4.982108
v -0.380645 -1.555462 4.982108
v 0.380643 -1.896353 4.971688
v -0.000001 -1.896353 4.971688
v -0.380645 -1.896353 4.971688
v 0.380643 -1.586331 5.992035
v -0.000001 -1.586331 5.992035
v -0.380645 -1.586331 5.992035
v 0.380643 -1.927222 5.981616
v -0.000001 -1.927222 5.981616
v -0.380645 -1.927222 5.981616
vn -0.5670 -0.8237 -0.0000
vn 1.0000 -0.0000 -0.0000
vn -1.0000 -0.0000 -0.0000
vn -0.0000 -0.0000 -1.0000
vn -0.0000 0.8733 0.4873
vn -0.0000 -1.0000 -0.0000
vn -0.0000 -0.9842 0.1773
vn -0.0000 0.7700 0.6380
vn -0.9924 -0.0000 0.1227
vn 0.9924 -0.0000 0.1227
vn -0.0000 -0.9924 0.1227
vn -0.0000 -0.0000 1.0000
vn -0.9295 -0.0000 0.3689
vn 0.9295 -0.0000 0.3689
vn -0.0000 -0.9998 0.0211
vn -0.0000 1.0000 -0.0000
vn 0.8958 0.4444 -0.0000
vn -0.0000 -0.8722 -0.4891
vn -0.0000 0.8902 0.4555
vn 0.0324 -0.0000 -0.9995
vn -0.5860 -0.0000 0.8103
vn 0.2043 -0.9789 -0.0000
vn -0.1496 -0.9887 -0.0000
vn 0.5950 -0.1049 0.7969
vn 0.0338 0.0060 -0.9994
vn -0.2043 -0.9789 -0.0000
vn 0.1496 -0.9887 -0.0000
vn -0.5984 0.1055 0.7942
vn -0.0367 -0.0000 -0.9993
vn -0.0377 -0.0066 -0.9993
vn 0.9848 -0.1736 -0.0000
vn 0.7449 -0.0000 0.6672
vn 0.7271 -0.1282 0.6745
vn -0.7582 -0.0000 0.6520
vn -0.2980 0.0525 -0.9531
vn -0.9848 -0.1736 -0.0000
vn -0.7404 -0.1306 0.6594
vn 0.3472 -0.0000 -0.9378
vn 0.3361 0.0593 -0.9400
vn -0.3787 0.8929 -0.2434
vn -0.0000 0.9513 -0.3082
vn -0.0000 0.9513 0.3082
vn -0.0043 1.0000 -0.0000
vn 0.0043 1.0000 -0.0000
vn -0.6264 0.7415 -0.2403
vn 0.6264 0.7416 0.2403
vn -0.1448 0.9895 -0.0000
vn 0.1448 0.9895 -0.0000
vn 0.1975 0.9803 -0.0000
vn -0.1975 0.9803 -0.0000
vn -0.3080 -0.0000 -0.9514
vn 0.5882 -0.0000 0.8087
vn -0.8958 -0.4444 -0.0000
vn 0.5670 -0.8237 -0.0000
vn -0.0000 0.6827 0.7307
vn -0.0000 0.9648 -0.2630
vn -0.0000 -0.0957 -0.9954
vn 0.9216 0.3881 -0.0000
vn 0.4273 0.8893 0.1628
vn -0.0000 0.9965 -0.0841
vn 0.3877 0.9141 -0.1188
vn -0.9216 0.3881 -0.0000
vn -0.0000 0.0146 -0.9999
vn -0.0000 0.7554 0.6553
vn 0.9804 0.1968 -0.0000
vn -0.9804 0.1968 -0.0000
vn -0.0000 -0.5737 -0.8191
vn -0.0000 -0.1227 -0.9924
vn 0.3855 0.9087 0.1600
vn -0.0000 0.9924 0.1227
vn -0.9981 0.0075 0.0608
vn -0.4290 0.8929 0.1369
vn 0.4006 -0.0000 0.9162
vn -0.8931 -0.0000 -0.4499
vn -0.0000 -0.8902 0.4555
vn -0.4044 -0.0000 0.9146
vn 0.9022 -0.0000 -0.4314
vn -0.8963 0.4434 -0.0000
vn 0.8963 -0.4434 -0.0000
vn 0.0039 -1.0000 -0.0000
vn -0.0039 -1.0000 -0.0000
vn -0.0000 0.9156 0.4021
vn -0.6205 -0.0000 -0.7842
vn 0.6205 -0.0000 -0.7842
vn 0.8944 -0.0000 0.4472
vn -0.8944 -0.0000 0.4472
vn -0.0000 -0.9844 -0.1758
vn -0.0000 0.1227 0.9924
vn 0.9981 0.0075 0.0608
vn -0.0000 0.9858 0.1680
vn -0.0000 -0.0306 0.9995
vn -0.0000 -0.0305 0.9995
vn -0.0000 -0.9995 -0.0306
vn -0.0000 0.9995 0.0306
vn -0.4273 0.8893 0.1628
vn -0.5859 -0.0000 0.8103
vn 0.6006 0.1059 0.7925
vn 0.0333 -0.0059 -0.9994
vn -0.5927 -0.1045 0.7986
vn -0.0383 0.0067 -0.9992
vn -0.2980 0.0526 -0.9531
vn -0.3877 0.9141 -0.1188
vn 0.6264 0.7416 -0.2403
vn -0.6264 0.7416 0.2403
vn 0.3787 0.8929 -0.2434
vn 0.4290 0.8929 0.1369
vn -0.3855 0.9087 0.1600
vt 0.497523 0.153859
vt 0.483280 0.202305
vt 0.464669 0.153859
vt 0.898532 0.983674
vt 0.914934 0.938455
vt 0.917673 0.990730
vt 0.562956 0.904387
vt 0.549623 0.917684
vt 0.549623 0.904388
vt 0.867860 0.911130
vt 0.884262 0.956349
vt 0.875678 0.959514
vt 0.733033 0.844984
vt 0.746365 0.878224
vt 0.733033 0.878223
vt 0.246311 0.345380
vt 0.077500 0.393825
vt 0.077500 0.345380
vt 0.564928 0.467109
vt 0.528317 0.439030
vt 0.567832 0.439030
vt 0.384224 0.153859
vt 0.431814 0.005814
vt 0.431814 0.153859
vt 0.431814 0.347641
vt 0.384224 0.495687
vt 0.384224 0.347641
vt 0.384224 0.202305
vt 0.443058 0.202305
vt 0.443058 0.226527
vt 0.593048 0.297323
vt 0.600204 0.297323
vt 0.918128 0.655349
vt 0.932694 0.510944
vt 0.932694 0.650933
vt 0.896293 0.255278
vt 0.910859 0.231093
vt 0.910859 0.259693
vt 0.355511 0.293518
vt 0.340722 0.330437
vt 0.340722 0.290593
vt 0.593047 0.293844
vt 0.600204 0.293844
vt 0.528308 0.271934
vt 0.528316 0.410683
vt 0.686376 0.410683
vt 0.621673 0.297323
vt 0.621673 0.293844
vt 0.290913 0.265182
vt 0.290913 0.257966
vt 0.000000 0.000000
vt 0.681042 0.088384
vt 0.679177 0.184238
vt 0.633373 0.184416
vt 0.178731 0.769901
vt 0.130979 0.599693
vt 0.178731 0.599688
vt 0.714956 0.446521
vt 0.811152 0.415604
vt 0.811152 0.448844
vt 0.534216 0.088384
vt 0.681040 0.065024
vt 0.961667 0.454803
vt 0.957475 0.406654
vt 0.970807 0.406656
vt 0.562956 0.891091
vt 0.549623 0.871833
vt 0.562956 0.871832
vt 0.246311 0.541871
vt 0.077500 0.541871
vt 0.464669 0.005814
vt 0.077500 0.200043
vt 0.023559 0.174497
vt 0.077500 0.051998
vt 0.497523 0.347641
vt 0.464668 0.495687
vt 0.464669 0.347641
vt 0.246311 0.051998
vt 0.246311 0.200044
vt 0.023559 0.419433
vt 0.023559 0.345410
vt 0.372803 0.691419
vt 0.349636 0.839466
vt 0.340577 0.691421
vt 0.572382 0.114913
vt 0.511238 0.114913
vt 0.053517 0.599687
vt 0.005766 0.769895
vt 0.005766 0.599682
vt 0.211696 0.599685
vt 0.244662 0.769895
vt 0.211696 0.769898
vt 0.086483 0.769903
vt 0.086483 0.599691
vt 0.686369 0.271934
vt 0.621671 0.268716
vt 0.593046 0.268716
vt 0.600202 0.268716
vt 0.910859 0.399682
vt 0.896293 0.405542
vt 0.932694 0.679533
vt 0.918128 0.685371
vt 0.054125 0.345380
vt 0.054125 0.393825
vt 0.722785 0.051878
vt 0.722785 0.065201
vt 0.733033 0.796836
vt 0.746365 0.844985
vt 0.726846 0.088207
vt 0.372803 0.839464
vt 0.349812 0.881557
vt 0.773664 0.684922
vt 0.778122 0.783929
vt 0.760340 0.685388
vt 0.839056 0.683639
vt 0.842257 0.782776
vt 0.825843 0.683542
vt 0.054303 0.583962
vt 0.054125 0.541871
vt 0.054303 0.009906
vt 0.077323 0.005813
vt 0.683242 0.496858
vt 0.649627 0.586563
vt 0.635754 0.493710
vt 0.748809 0.501205
vt 0.713844 0.590820
vt 0.716025 0.499031
vt 0.687617 0.589082
vt 0.703587 0.782211
vt 0.740071 0.592559
vt 0.735696 0.784339
vt 0.040971 0.583962
vt 0.040793 0.541871
vt 0.833641 0.005813
vt 0.835323 0.101624
vt 0.817091 0.105012
vt 0.336422 0.839467
vt 0.336422 0.691421
vt 0.791446 0.783463
vt 0.792182 0.687550
vt 0.814311 0.778568
vt 0.558697 0.782830
vt 0.524158 0.693441
vt 0.562125 0.690580
vt 0.591460 0.780361
vt 0.588335 0.688605
vt 0.579029 0.497115
vt 0.598012 0.495685
vt 0.611117 0.494697
vt 0.970807 0.295308
vt 0.957475 0.328549
vt 0.922390 0.295313
vt 0.855471 0.782873
vt 0.857285 0.687046
vt 0.878316 0.778947
vt 0.751701 0.104819
vt 0.756156 0.005813
vt 0.769480 0.006279
vt 0.770218 0.102190
vt 0.572160 0.891011
vt 0.572160 0.904306
vt 0.572160 0.871751
vt 0.834151 0.294902
vt 0.803877 0.105094
vt 0.856481 0.293126
vt 0.847365 0.294820
vt 0.855988 0.493710
vt 0.869202 0.493807
vt 0.805053 0.493710
vt 0.814311 0.495024
vt 0.696638 0.810213
vt 0.687433 0.796837
vt 0.696638 0.796917
vt 0.687433 0.823428
vt 0.696638 0.842768
vt 0.687433 0.842688
vt 0.054125 0.200043
vt 0.040793 0.051998
vt 0.054125 0.051998
vt 0.878316 0.495511
vt 0.769763 0.295606
vt 0.738377 0.104353
vt 0.792346 0.294758
vt 0.783087 0.296072
vt 0.469759 0.555759
vt 0.478841 0.507348
vt 0.499221 0.555794
vt 0.499138 0.507398
vt 0.499138 0.555844
vt 0.655379 0.482083
vt 0.703425 0.482083
vt 0.887001 0.990731
vt 0.330071 0.691401
vt 0.330071 0.839447
vt 0.534214 0.051700
vt 0.681059 0.045297
vt 0.681040 0.051700
vt 0.005766 0.393791
vt 0.005766 0.541836
vt 0.290913 0.691390
vt 0.290913 0.839435
vt 0.722804 0.045474
vt 0.336598 0.881558
vt 0.330247 0.881538
vt 0.041028 0.583928
vt 0.325863 0.881525
vt 0.251841 0.829682
vt 0.266419 0.798672
vt 0.266418 0.837191
vt 0.251841 0.862921
vt 0.266418 0.863782
vt 0.484356 0.760957
vt 0.469759 0.729816
vt 0.484356 0.712809
vt 0.484356 0.827435
vt 0.469759 0.794926
vt 0.484356 0.794196
vt 0.511238 0.836551
vt 0.549623 0.891092
vt 0.511238 0.863143
vt 0.635754 0.880654
vt 0.674101 0.842686
vt 0.635754 0.919172
vt 0.635754 0.827471
vt 0.674101 0.810131
vt 0.635754 0.854062
vt 0.497688 0.760956
vt 0.497688 0.712807
vt 0.791728 0.494176
vt 0.497688 0.794195
vt 0.238509 0.829681
vt 0.251841 0.781534
vt 0.040793 0.393825
vt 0.040971 0.009906
vt 0.238509 0.862920
vt 0.820427 0.005896
vt 0.970807 0.373416
vt 0.922390 0.373412
vt 0.534214 0.055890
vt 0.721501 0.844984
vt 0.708169 0.796837
vt 0.721501 0.796836
vt 0.674101 0.823427
vt 0.961667 0.213922
vt 0.957475 0.262070
vt 0.957475 0.213922
vt 0.687433 0.810133
vt 0.721501 0.911462
vt 0.708169 0.878224
vt 0.721501 0.878223
vt 0.708169 0.844985
vt 0.674101 0.796836
vt 0.957475 0.340176
vt 0.970807 0.340177
vt 0.238509 0.896159
vt 0.251841 0.896161
vt 0.511238 0.889734
vt 0.469759 0.768335
vt 0.266418 0.890374
vt 0.041028 0.009872
vt 0.722817 0.041054
vt 0.040793 0.200043
vt 0.005766 0.051963
vt 0.534233 0.045297
vt 0.681071 0.005813
vt 0.906350 0.935291
vt 0.917673 0.904074
vt 0.117866 0.829993
vt 0.113482 0.781534
vt 0.117866 0.781547
vt 0.696638 0.823509
vt 0.562956 0.917683
vt 0.572160 0.917602
vt 0.970807 0.262069
vt 0.614546 0.686630
vt 0.624223 0.493710
vt 0.624223 0.777892
vt 0.722582 0.783470
vt 0.119448 0.769907
vt 0.119448 0.599694
vt 0.431814 0.495687
vt 0.497523 0.005814
vt 0.226977 0.865262
vt 0.130979 0.829681
vt 0.226977 0.832023
vt 0.746365 0.911464
vt 0.733033 0.911462
vt 0.443058 0.299196
vt 0.466853 0.299196
vt 0.926560 0.844001
vt 0.867860 0.868221
vt 0.867860 0.843998
vt 0.359490 0.945721
vt 0.365841 0.994187
vt 0.359490 0.994167
vt 0.469759 0.604205
vt 0.499221 0.652685
vt 0.469759 0.652650
vt 0.077500 0.248489
vt 0.054125 0.296934
vt 0.054125 0.248489
vt 0.614516 0.293844
vt 0.607359 0.268716
vt 0.614515 0.268716
vt 0.340722 0.250750
vt 0.290913 0.243534
vt 0.340722 0.210907
vt 0.614517 0.297323
vt 0.607360 0.293844
vt 0.355511 0.250750
vt 0.355511 0.207982
vt 0.607347 0.439030
vt 0.646863 0.439030
vt 0.483280 0.299196
vt 0.499707 0.299196
vt 0.607343 0.467109
vt 0.649758 0.467109
vt 0.246311 0.248489
vt 0.077500 0.296934
vt 0.466853 0.202305
vt 0.246311 0.296935
vt 0.279382 0.272711
vt 0.279382 0.296934
vt 0.340722 0.171063
vt 0.355511 0.165215
vt 0.290913 0.236318
vt 0.511238 0.461716
vt 0.559286 0.482083
vt 0.511239 0.482083
vt 0.384224 0.250750
vt 0.443058 0.274973
vt 0.384224 0.299196
vt 0.583691 0.855606
vt 0.601588 0.798033
vt 0.616657 0.855606
vt 0.359490 0.897276
vt 0.365841 0.945741
vt 0.499221 0.604239
vt 0.607360 0.297323
vt 0.279382 0.321157
vt 0.443058 0.250750
vt 0.686378 0.439030
vt 0.692173 0.446742
vt 0.478841 0.701130
vt 0.469759 0.701096
vt 0.499138 0.701180
vt 0.719340 0.317175
vt 0.714956 0.268716
vt 0.719340 0.268729
vt 0.279382 0.248488
vt 0.290913 0.250750
vt 0.616657 0.924801
vt 0.598759 0.867233
vt 0.615242 0.867233
vt 0.347959 0.945721
vt 0.290913 0.969944
vt 0.290913 0.945721
vt 0.867860 0.819775
vt 0.926560 0.795556
vt 0.290913 0.921498
vt 0.347959 0.897276
vt 0.408358 0.963247
vt 0.396352 0.900623
vt 0.408363 0.900623
vt 0.889847 0.769436
vt 0.905447 0.711017
vt 0.905447 0.774802
vt 0.408367 0.899518
vt 0.396355 0.899518
vt 0.420378 0.899518
vt 0.916978 0.713701
vt 0.932578 0.772116
vt 0.924778 0.774799
vt 0.467935 0.899518
vt 0.479960 0.959882
vt 0.467949 0.959882
vt 0.420375 0.900623
vt 0.432381 0.963247
vt 0.455937 0.959882
vt 0.443912 0.899518
vt 0.377480 0.290642
vt 0.377480 0.250750
vt 0.703424 0.461716
vt 0.607332 0.482083
vt 0.377480 0.210858
vt 0.362255 0.213869
vt 0.889847 0.663923
vt 0.889847 0.696707
vt 0.868012 0.246707
vt 0.868012 0.416919
vt 0.355511 0.336286
vt 0.896293 0.225256
vt 0.918128 0.505085
vt 0.522511 0.446742
vt 0.290913 0.531717
vt 0.317223 0.568972
vt 0.290913 0.679763
vt 0.435808 0.507314
vt 0.317223 0.507320
vt 0.435808 0.568966
vt 0.458228 0.679754
vt 0.822683 0.311870
vt 0.846868 0.457270
vt 0.822683 0.482083
vt 0.458228 0.531708
vt 0.572389 0.234483
vt 0.511245 0.234483
vt 0.681051 0.257089
vt 0.279181 0.769895
vt 0.256193 0.624444
vt 0.279181 0.599682
vt 0.534225 0.257089
vt 0.985128 0.514495
vt 0.944225 0.601041
vt 0.944225 0.493710
vt 0.005766 0.817090
vt 0.101951 0.781534
vt 0.101951 0.814773
vt 0.856329 0.828795
vt 0.760340 0.797893
vt 0.856329 0.795556
vt 0.994234 0.053816
vt 0.948431 0.005813
vt 0.994234 0.005830
vt 0.994234 0.120071
vt 0.948431 0.086927
vt 0.994234 0.086943
vt 0.948431 0.053799
vt 0.856329 0.862034
vt 0.760340 0.831132
vt 0.856329 0.910183
vt 0.760340 0.864371
vt 0.005766 0.850329
vt 0.101951 0.848012
vt 0.005766 0.898477
vt 0.101951 0.896160
vt 0.938091 0.816195
vt 0.979067 0.903653
vt 0.938091 0.924292
vt 0.944225 0.633470
vt 0.990029 0.681439
vt 0.944225 0.681456
vt 0.990029 0.714566
vt 0.944225 0.714584
vt 0.990029 0.747694
vt 0.944225 0.747711
vt 0.173415 0.539985
vt 0.077323 0.588055
vt 0.226977 0.898501
vt 0.130979 0.862920
vt 0.130979 0.781533
vt 0.226977 0.783875
vt 0.714956 0.479760
vt 0.811152 0.482083
vt 0.714956 0.413281
vt 0.811152 0.367456
vt 0.011872 0.248519
vt 0.023559 0.248519
vt 0.011872 0.419433
vt 0.011872 0.345410
vt 0.407502 0.839435
vt 0.453222 0.813868
vt 0.453222 0.887891
vt 0.891180 0.054249
vt 0.936899 0.079836
vt 0.891180 0.202295
vt 0.011872 0.174497
vt 0.925316 0.005814
vt 0.936899 0.005813
vt 0.441638 0.887891
vt 0.384335 0.839437
vt 0.466853 0.226527
vt 0.483280 0.226527
vt 0.466853 0.274973
vt 0.499707 0.202305
vt 0.499707 0.226527
vt 0.483280 0.274973
vt 0.499707 0.250750
vt 0.499707 0.274973
vt 0.483280 0.250750
vt 0.466853 0.250750
vt 0.279382 0.345379
vt 0.246311 0.393826
vt 0.362255 0.287631
vt 0.362255 0.250750
vt 0.887001 0.904074
vt 0.384224 0.005813
vt 0.130979 0.769906
vt 0.957475 0.454803
vt 0.497523 0.495687
vt 0.053517 0.769900
vt 0.244662 0.599682
vt 0.746365 0.796837
vt 0.372627 0.885649
vt 0.748809 0.785209
vt 0.856481 0.009764
vt 0.511238 0.786406
vt 0.970807 0.328547
vt 0.792346 0.011174
vt 0.469759 0.507314
vt 0.469759 0.821518
vt 0.511238 0.798033
vt 0.497689 0.827434
vt 0.238509 0.781533
vt 0.708169 0.911464
vt 0.005766 0.200009
vt 0.534245 0.005813
vt 0.113482 0.829979
vt 0.926560 0.892447
vt 0.585105 0.798033
vt 0.365841 0.897296
vt 0.499138 0.652735
vt 0.714956 0.317161
vt 0.583691 0.924801
vt 0.347959 0.994167
vt 0.384335 0.963247
vt 0.897647 0.708334
vt 0.932578 0.708334
vt 0.491959 0.899518
vt 0.868012 0.213922
vt 0.889847 0.493710
vt 0.846868 0.336632
vt 0.256193 0.745082
vt 0.985128 0.621826
vt 0.005766 0.783850
vt 0.948431 0.120054
vt 0.760340 0.912519
vt 0.979067 0.795556
vt 0.990029 0.633453
vt 0.173592 0.493801
vt 0.130979 0.896159
vt 0.714956 0.365133
vt 0.407502 0.691390
vt 0.868012 0.054251
s 0
usemtl Material
f 132/193/79 467/194/79 298/195/79
f 139/196/80 256/197/80 259/198/80
f 327/199/80 291/200/80 343/201/80
f 140/202/81 258/203/81 135/204/81
f 178/205/81 338/206/81 306/207/81
f 359/208/82 160/209/82 368/210/82
f 414/211/83 144/212/83 364/213/83
f 138/214/84 152/215/84 131/216/84
f 130/217/84 155/218/84 137/219/84
f 483/220/85 469/221/85 468/222/85
f 364/213/86 148/223/86 366/224/86
f 410/225/87 142/226/87 164/227/87
f 409/228/88 143/229/88 163/230/88
f 485/231/89 141/232/89 378/233/89
f 366/224/90 166/234/90 367/235/90
f 142/236/91 166/234/91 164/237/91
f 163/238/92 147/239/92 165/240/92
f 378/233/93 145/241/93 380/242/93
f 181/243/94 433/243/94 435/243/94
f 172/244/90 450/245/90 446/246/90
f 152/247/81 172/248/81 169/249/81
f 303/250/95 445/251/95 447/252/95
f 162/253/90 158/254/90 172/244/90
f 171/243/94 419/243/94 420/243/94
f 139/255/81 262/256/81 134/257/81
f 246/258/80 293/259/80 248/260/80
f 160/209/82 153/261/82 170/262/82
f 131/216/84 302/263/84 298/195/84
f 159/264/96 457/265/96 167/266/96
f 129/267/84 301/268/84 297/269/84
f 159/264/82 149/270/82 129/271/82
f 160/209/96 459/272/96 455/273/96
f 161/274/90 156/275/90 139/276/90
f 162/253/97 428/277/97 427/278/97
f 150/279/80 171/280/80 155/281/80
f 304/243/94 429/243/94 434/243/94
f 303/282/81 153/283/81 302/284/81
f 304/285/80 150/279/80 301/286/80
f 141/287/92 165/240/92 145/288/92
f 164/237/91 148/223/91 144/212/91
f 367/235/90 146/289/90 365/290/90
f 409/228/88 141/291/88 408/292/88
f 410/225/87 144/293/87 406/294/87
f 360/295/82 160/209/82 136/296/82
f 181/243/94 187/243/94 189/243/94
f 190/243/94 201/243/94 202/243/94
f 308/243/94 185/243/94 310/243/94
f 188/243/94 202/243/94 200/243/94
f 158/254/90 278/297/90 184/298/90
f 184/299/81 275/300/81 178/205/81
f 172/244/90 184/298/90 183/301/90
f 171/302/90 182/303/90 156/275/90
f 228/304/98 279/305/98 282/306/98
f 242/307/99 287/308/99 290/309/99
f 170/262/82 180/310/82 154/311/82
f 167/266/82 174/312/82 173/313/82
f 189/243/94 199/243/94 201/243/94
f 310/243/94 197/243/94 314/243/94
f 176/243/94 190/243/94 188/243/94
f 182/243/94 189/243/94 190/243/94
f 305/243/94 188/243/94 309/243/94
f 173/243/94 186/243/94 185/243/94
f 202/243/94 213/243/94 214/243/94
f 200/243/94 214/243/94 212/243/94
f 201/243/94 211/243/94 213/243/94
f 314/243/94 209/243/94 318/243/94
f 309/243/94 200/243/94 313/243/94
f 185/243/94 198/243/94 197/243/94
f 307/243/94 191/243/94 312/243/94
f 177/243/94 195/243/94 191/243/94
f 184/243/94 192/243/94 196/243/94
f 183/243/94 196/243/94 195/243/94
f 306/243/94 194/243/94 311/243/94
f 180/243/94 193/243/94 194/243/94
f 203/243/94 236/243/94 232/243/94
f 316/243/94 232/243/94 325/243/94
f 213/243/94 217/243/94 219/243/94
f 318/243/94 215/243/94 320/243/94
f 313/243/94 212/243/94 317/243/94
f 197/243/94 210/243/94 209/243/94
f 312/243/94 203/243/94 316/243/94
f 191/243/94 207/243/94 203/243/94
f 196/243/94 204/243/94 208/243/94
f 195/243/94 208/243/94 207/243/94
f 311/243/94 206/243/94 315/243/94
f 194/243/94 205/243/94 206/243/94
f 219/243/94 223/243/94 225/243/94
f 320/243/94 221/243/94 322/243/94
f 212/243/94 220/243/94 218/243/94
f 214/243/94 219/243/94 220/243/94
f 317/243/94 218/243/94 319/243/94
f 209/243/94 216/243/94 215/243/94
f 223/314/100 230/315/100 225/316/100
f 221/317/100 323/318/100 322/319/100
f 218/243/94 226/243/94 224/243/94
f 220/243/94 225/243/94 226/243/94
f 319/243/94 224/243/94 321/243/94
f 215/243/94 222/243/94 221/243/94
f 229/320/101 247/321/101 230/315/101
f 227/322/101 328/323/101 323/318/101
f 154/311/82 276/324/82 270/325/82
f 226/326/102 230/327/102 231/328/102
f 139/276/90 271/329/90 265/330/90
f 222/331/103 227/332/103 221/333/103
f 232/334/104 241/335/104 238/336/104
f 325/337/104 238/336/104 326/338/104
f 208/243/94 233/243/94 237/243/94
f 207/243/94 237/243/94 236/243/94
f 315/243/94 235/243/94 324/243/94
f 206/243/94 234/243/94 235/243/94
f 238/336/105 253/339/105 249/340/105
f 326/338/105 249/340/105 330/341/105
f 300/342/80 264/343/80 334/344/80
f 237/345/106 241/346/106 236/347/106
f 240/348/107 286/349/107 235/350/107
f 235/350/108 239/351/108 240/348/108
f 327/199/109 245/352/109 328/353/109
f 245/352/109 248/260/109 247/354/109
f 231/328/110 293/355/110 284/356/110
f 231/328/111 247/357/111 248/358/111
f 242/307/112 296/359/112 254/360/112
f 227/332/113 244/361/113 243/362/113
f 330/363/114 252/364/114 251/365/114
f 250/366/114 253/367/114 254/368/114
f 133/369/82 267/370/82 151/371/82
f 242/307/115 253/372/115 241/346/115
f 240/348/116 295/373/116 289/374/116
f 240/348/117 251/375/117 252/376/117
f 372/377/118 258/378/118 370/379/118
f 370/379/94 260/380/94 371/381/94
f 377/382/94 259/383/94 386/382/94
f 300/384/94 258/203/94 332/384/94
f 360/243/94 257/243/94 369/243/94
f 299/243/94 255/243/94 331/243/94
f 262/385/94 271/329/94 268/386/94
f 266/387/94 269/388/94 272/389/94
f 334/390/119 270/325/119 336/391/119
f 333/392/120 268/386/120 335/393/120
f 272/389/121 275/394/121 278/297/121
f 268/386/122 277/395/122 274/396/122
f 270/325/123 338/397/123 336/391/123
f 268/386/124 337/398/124 335/393/124
f 280/399/125 284/400/125 283/401/125
f 339/402/125 283/401/125 340/403/125
f 285/404/126 290/405/126 287/406/126
f 286/407/126 342/408/126 341/409/126
f 283/410/127 293/259/127 292/411/127
f 340/412/127 292/411/127 343/201/127
f 288/413/128 296/414/128 290/415/128
f 289/416/128 344/417/128 342/418/128
f 233/419/80 287/406/80 237/420/80
f 228/304/129 291/421/129 244/361/129
f 324/422/80 286/407/80 341/409/80
f 224/423/81 281/424/81 280/399/81
f 154/311/82 264/425/82 136/296/82
f 151/371/82 273/426/82 174/312/82
f 321/427/81 280/399/81 339/402/81
f 156/275/90 277/395/90 271/329/90
f 231/328/130 281/428/130 226/326/130
f 299/429/81 262/256/81 333/430/81
f 140/431/90 272/389/90 158/254/90
f 176/432/80 277/433/80 182/434/80
f 250/366/81 296/414/81 294/435/81
f 140/436/80 263/437/80 266/438/80
f 250/366/81 344/417/81 329/439/81
f 174/440/80 337/441/80 305/442/80
f 305/442/80 274/443/80 176/432/80
f 329/439/81 295/444/81 252/364/81
f 299/429/81 261/445/81 133/446/81
f 222/447/81 339/402/81 279/448/81
f 233/419/80 341/409/80 285/404/80
f 342/418/128 294/435/128 288/413/128
f 282/449/127 343/201/127 291/200/127
f 341/409/126 288/450/126 285/404/126
f 279/448/125 340/403/125 282/451/125
f 267/370/122 337/452/122 273/426/122
f 269/388/121 338/453/121 275/394/121
f 261/454/119 335/455/119 267/370/119
f 263/456/120 336/457/120 269/388/120
f 134/458/80 331/459/80 256/197/80
f 136/243/94 332/243/94 257/243/94
f 257/460/94 372/461/94 369/462/94
f 249/463/114 329/439/114 330/363/114
f 244/464/109 328/353/109 243/465/109
f 300/342/80 263/437/80 135/466/80
f 239/467/105 330/341/105 251/468/105
f 204/243/94 324/243/94 233/243/94
f 234/469/104 326/338/104 239/467/104
f 323/318/101 245/470/101 229/320/101
f 216/243/94 321/243/94 222/243/94
f 322/319/100 229/320/100 223/314/100
f 210/243/94 319/243/94 216/243/94
f 217/243/94 322/243/94 223/243/94
f 192/243/94 315/243/94 204/243/94
f 193/243/94 316/243/94 205/243/94
f 198/243/94 317/243/94 210/243/94
f 211/243/94 320/243/94 217/243/94
f 205/243/94 325/243/94 234/243/94
f 178/243/94 311/243/94 192/243/94
f 179/243/94 312/243/94 193/243/94
f 186/243/94 313/243/94 198/243/94
f 199/243/94 318/243/94 211/243/94
f 174/243/94 309/243/94 186/243/94
f 187/243/94 314/243/94 199/243/94
f 175/243/94 310/243/94 187/243/94
f 167/471/80 301/286/80 149/472/80
f 169/249/81 302/284/81 152/247/81
f 173/243/94 436/243/94 430/243/94
f 297/269/84 150/473/84 130/217/84
f 298/195/84 153/474/84 132/193/84
f 307/475/131 449/476/131 177/477/131
f 306/207/81 276/478/81 180/479/81
f 246/258/80 343/201/80 292/411/80
f 131/216/79 469/221/79 138/214/79
f 130/217/132 470/480/132 462/481/132
f 358/482/133 392/483/133 390/484/133
f 375/243/94 355/243/94 384/243/94
f 362/243/94 357/243/94 371/243/94
f 356/485/94 386/486/94 385/487/94
f 358/488/134 385/489/134 373/490/134
f 383/491/82 346/492/82 375/493/82
f 382/494/90 351/495/90 380/496/90
f 349/497/93 365/498/93 363/499/93
f 381/500/90 353/501/90 382/494/90
f 486/502/89 363/499/89 484/503/89
f 350/504/86 381/500/86 379/505/86
f 129/267/132 461/506/132 471/507/132
f 412/508/83 379/505/83 415/509/83
f 374/510/82 354/511/82 383/491/82
f 298/195/79 466/512/79 131/216/79
f 345/513/135 473/514/135 474/515/135
f 484/503/89 142/516/89 407/517/89
f 363/499/93 146/518/93 142/516/93
f 140/519/90 371/520/90 260/521/90
f 482/522/85 477/523/85 481/524/85
f 384/525/136 392/526/136 373/527/136
f 346/243/94 369/243/94 355/243/94
f 370/528/94 357/529/94 356/485/94
f 372/377/134 356/530/134 358/488/134
f 346/492/82 368/210/82 360/295/82
f 353/501/90 365/290/90 351/495/90
f 352/531/90 367/235/90 353/501/90
f 350/504/86 366/224/86 352/531/86
f 412/508/83 364/213/83 350/504/83
f 345/513/82 368/210/82 354/511/82
f 345/513/135 463/532/135 359/208/135
f 482/522/85 468/222/85 478/533/85
f 129/271/82 383/491/82 159/264/82
f 415/509/137 143/534/137 405/535/137
f 379/505/86 147/239/86 143/534/86
f 147/239/90 382/494/90 165/240/90
f 165/240/90 380/496/90 145/288/90
f 159/264/82 375/493/82 133/369/82
f 373/490/138 256/536/138 331/537/138
f 385/489/139 259/538/139 256/536/139
f 133/243/94 384/243/94 255/243/94
f 384/539/94 331/540/94 255/541/94
f 374/510/135 471/542/135 473/514/135
f 348/243/94 386/243/94 357/243/94
f 349/497/93 380/242/93 351/543/93
f 486/502/89 378/233/89 349/497/89
f 481/524/85 470/480/85 137/219/85
f 390/243/94 398/243/94 396/243/94
f 392/243/94 393/243/94 398/243/94
f 369/544/140 389/545/140 391/546/140
f 355/547/141 391/548/141 388/549/141
f 358/482/133 389/550/133 372/551/133
f 355/547/141 387/552/141 384/553/141
f 396/554/142 404/555/142 402/556/142
f 393/557/143 404/558/143 398/559/143
f 391/243/94 395/243/94 397/243/94
f 388/243/94 397/243/94 394/243/94
f 389/243/94 396/243/94 395/243/94
f 387/243/94 394/243/94 393/243/94
f 400/560/94 404/555/94 399/561/94
f 403/562/94 402/556/94 400/560/94
f 397/563/144 401/564/144 403/565/144
f 394/566/145 403/567/145 400/568/145
f 396/554/142 401/569/142 395/570/142
f 394/566/145 399/571/145 393/572/145
f 376/573/146 487/574/146 347/574/146
f 377/382/147 405/535/147 139/575/147
f 348/576/148 414/211/148 412/508/148
f 483/220/89 407/517/89 138/214/89
f 348/576/148 415/509/148 377/382/148
f 361/577/149 491/578/149 413/578/149
f 162/579/87 406/294/87 140/580/87
f 161/581/88 408/292/88 137/582/88
f 481/524/89 408/583/89 485/231/89
f 161/581/88 405/584/88 409/228/88
f 162/579/87 407/585/87 410/225/87
f 362/520/150 406/586/150 414/211/150
f 419/587/97 424/588/97 420/589/97
f 155/243/94 420/243/94 417/243/94
f 161/243/94 418/243/94 419/243/94
f 137/243/94 417/243/94 418/243/94
f 422/590/90 424/588/90 423/591/90
f 420/589/151 421/592/151 417/593/151
f 418/594/152 423/595/152 419/596/152
f 418/597/153 421/592/153 422/590/153
f 427/278/90 426/598/90 425/599/90
f 157/600/154 428/277/154 172/244/154
f 162/601/155 425/602/155 138/603/155
f 138/604/153 426/598/153 157/600/153
f 433/605/90 443/606/90 435/607/90
f 434/608/156 437/609/156 442/610/156
f 436/611/157 438/612/157 430/613/157
f 308/243/94 431/243/94 436/243/94
f 175/243/94 435/243/94 431/243/94
f 168/243/94 434/243/94 432/243/94
f 171/243/94 432/243/94 433/243/94
f 167/243/94 430/243/94 429/243/94
f 440/614/158 443/615/158 441/616/158
f 437/617/158 444/618/158 442/619/158
f 442/619/158 439/620/158 440/614/158
f 431/621/157 444/622/157 436/611/157
f 435/623/157 439/624/157 431/621/157
f 432/625/156 442/610/156 440/626/156
f 433/627/156 440/626/156 441/628/156
f 429/629/82 438/630/82 437/631/82
f 446/632/159 449/633/159 445/634/159
f 445/634/159 451/635/159 447/636/159
f 447/636/159 452/637/159 448/638/159
f 170/262/82 452/639/82 179/640/82
f 179/641/131 451/642/131 307/475/131
f 177/477/131 450/643/131 183/644/131
f 170/645/95 447/252/95 448/646/95
f 169/647/95 446/648/95 445/251/95
f 454/649/82 457/265/82 453/650/82
f 455/273/82 460/651/82 456/652/82
f 133/653/160 458/654/160 454/655/160
f 136/656/160 460/657/160 154/658/160
f 154/311/161 459/272/161 170/262/161
f 151/371/162 457/265/162 458/659/162
f 136/656/163 455/660/163 456/661/163
f 133/653/164 453/662/164 159/663/164
f 465/664/84 467/194/84 472/665/84
f 475/666/84 470/480/84 477/523/84
f 472/665/84 464/667/84 463/668/84
f 479/669/84 474/670/84 473/671/84
f 465/664/84 478/533/84 468/222/84
f 475/666/84 480/672/84 479/669/84
f 466/512/84 468/222/84 469/221/84
f 480/672/84 463/668/84 474/670/84
f 476/673/84 472/665/84 480/672/84
f 462/481/84 479/669/84 461/506/84
f 461/506/84 473/671/84 471/507/84
f 476/673/84 477/523/84 478/533/84
f 359/208/135 464/674/135 132/675/135
f 297/269/132 462/481/132 461/506/132
f 376/573/89 482/522/89 481/524/89
f 361/577/89 482/522/89 347/574/89
f 361/577/89 484/503/89 483/220/89
f 376/573/89 485/231/89 416/676/89
f 416/676/89 486/502/89 411/677/89
f 413/578/89 486/502/89 484/503/89
f 498/676/165 503/677/165 494/677/165
f 489/573/146 493/574/146 487/574/146
f 413/578/166 488/677/166 411/677/166
f 376/573/167 492/676/167 489/573/167
f 347/574/146 490/577/146 361/577/146
f 411/677/166 492/676/166 416/676/166
f 493/574/89 498/676/89 494/677/89
f 493/574/89 497/578/89 496/577/89
f 489/573/167 498/676/167 495/573/167
f 487/574/146 496/577/146 490/577/146
f 491/578/168 500/677/168 488/677/168
f 490/577/149 497/578/149 491/578/149
f 504/578/81 507/578/81 501/578/81
f 502/676/80 505/676/80 508/676/80
f 498/676/80 499/676/80 502/676/80
f 497/578/81 501/578/81 491/578/81
f 494/677/165 504/578/165 497/578/165
f 488/677/168 499/676/168 492/676/168
f 506/677/169 510/578/169 509/677/169
f 506/677/170 508/676/170 505/676/170
f 502/676/171 509/677/171 503/677/171
f 500/677/172 505/676/172 499/676/172
f 503/677/171 510/578/171 504/578/171
f 501/578/172 506/677/172 500/677/172
f 132/193/79 464/667/79 467/194/79
f 139/196/80 134/458/80 256/197/80
f 327/199/80 244/464/80 291/200/80
f 140/202/81 260/678/81 258/203/81
f 178/205/81 275/300/81 338/206/81
f 359/208/82 132/675/82 160/209/82
f 414/211/173 406/586/173 144/212/173
f 138/214/84 157/679/84 152/215/84
f 130/217/84 150/473/84 155/218/84
f 483/220/85 138/214/85 469/221/85
f 364/213/86 144/212/86 148/223/86
f 410/225/87 407/585/87 142/226/87
f 409/228/88 405/584/88 143/229/88
f 485/231/89 408/583/89 141/232/89
f 366/224/90 148/223/90 166/234/90
f 142/236/91 146/289/91 166/234/91
f 163/238/92 143/534/92 147/239/92
f 378/233/93 141/232/93 145/241/93
f 181/243/94 171/243/94 433/243/94
f 172/244/90 183/301/90 450/245/90
f 152/247/81 157/680/81 172/248/81
f 303/250/95 169/647/95 445/251/95
f 162/253/90 140/431/90 158/254/90
f 171/243/94 161/243/94 419/243/94
f 139/255/81 265/681/81 262/256/81
f 246/258/80 292/411/80 293/259/80
f 160/209/82 132/675/82 153/261/82
f 131/216/84 152/215/84 302/263/84
f 159/264/96 453/650/96 457/265/96
f 129/267/84 149/682/84 301/268/84
f 159/264/82 167/266/82 149/270/82
f 160/209/96 170/262/96 459/272/96
f 161/274/90 171/302/90 156/275/90
f 162/253/97 172/244/97 428/277/97
f 150/279/80 168/683/80 171/280/80
f 304/243/94 167/243/94 429/243/94
f 303/282/81 170/684/81 153/283/81
f 304/285/80 168/683/80 150/279/80
f 141/287/92 163/238/92 165/240/92
f 164/237/91 166/234/91 148/223/91
f 367/235/90 166/234/90 146/289/90
f 409/228/88 163/230/88 141/291/88
f 410/225/87 164/227/87 144/293/87
f 360/295/82 368/210/82 160/209/82
f 181/243/94 175/243/94 187/243/94
f 190/243/94 189/243/94 201/243/94
f 308/243/94 173/243/94 185/243/94
f 188/243/94 190/243/94 202/243/94
f 158/254/90 272/389/90 278/297/90
f 184/299/81 278/685/81 275/300/81
f 172/244/90 158/254/90 184/298/90
f 171/302/90 181/686/90 182/303/90
f 228/304/98 222/331/98 279/305/98
f 242/307/174 237/345/174 287/308/174
f 170/262/82 179/640/82 180/310/82
f 167/266/82 151/371/82 174/312/82
f 189/243/94 187/243/94 199/243/94
f 310/243/94 185/243/94 197/243/94
f 176/243/94 182/243/94 190/243/94
f 182/243/94 181/243/94 189/243/94
f 305/243/94 176/243/94 188/243/94
f 173/243/94 174/243/94 186/243/94
f 202/243/94 201/243/94 213/243/94
f 200/243/94 202/243/94 214/243/94
f 201/243/94 199/243/94 211/243/94
f 314/243/94 197/243/94 209/243/94
f 309/243/94 188/243/94 200/243/94
f 185/243/94 186/243/94 198/243/94
f 307/243/94 177/243/94 191/243/94
f 177/243/94 183/243/94 195/243/94
f 184/243/94 178/243/94 192/243/94
f 183/243/94 184/243/94 196/243/94
f 306/243/94 180/243/94 194/243/94
f 180/243/94 179/243/94 193/243/94
f 203/243/94 207/243/94 236/243/94
f 316/243/94 203/243/94 232/243/94
f 213/243/94 211/243/94 217/243/94
f 318/243/94 209/243/94 215/243/94
f 313/243/94 200/243/94 212/243/94
f 197/243/94 198/243/94 210/243/94
f 312/243/94 191/243/94 203/243/94
f 191/243/94 195/243/94 207/243/94
f 196/243/94 192/243/94 204/243/94
f 195/243/94 196/243/94 208/243/94
f 311/243/94 194/243/94 206/243/94
f 194/243/94 193/243/94 205/243/94
f 219/243/94 217/243/94 223/243/94
f 320/243/94 215/243/94 221/243/94
f 212/243/94 214/243/94 220/243/94
f 214/243/94 213/243/94 219/243/94
f 317/243/94 212/243/94 218/243/94
f 209/243/94 210/243/94 216/243/94
f 223/314/100 229/320/100 230/315/100
f 221/317/100 227/322/100 323/318/100
f 218/243/94 220/243/94 226/243/94
f 220/243/94 219/243/94 225/243/94
f 319/243/94 218/243/94 224/243/94
f 215/243/94 216/243/94 222/243/94
f 229/320/101 245/470/101 247/321/101
f 227/322/101 243/687/101 328/323/101
f 154/311/82 180/310/82 276/324/82
f 226/326/175 225/688/175 230/327/175
f 139/276/90 156/275/90 271/329/90
f 222/331/176 228/304/176 227/332/176
f 232/334/104 236/689/104 241/335/104
f 325/337/104 232/334/104 238/336/104
f 208/243/94 204/243/94 233/243/94
f 207/243/94 208/243/94 237/243/94
f 315/243/94 206/243/94 235/243/94
f 206/243/94 205/243/94 234/243/94
f 238/336/105 241/335/105 253/339/105
f 326/338/105 238/336/105 249/340/105
f 300/342/80 136/690/80 264/343/80
f 237/345/177 242/307/177 241/346/177
f 240/348/107 289/374/107 286/349/107
f 235/350/178 234/691/178 239/351/178
f 327/199/109 246/258/109 245/352/109
f 245/352/109 246/258/109 248/260/109
f 231/328/110 248/358/110 293/355/110
f 231/328/111 230/327/111 247/357/111
f 242/307/112 290/309/112 296/359/112
f 227/332/179 228/304/179 244/361/179
f 330/363/114 329/439/114 252/364/114
f 250/366/114 249/463/114 253/367/114
f 133/369/82 261/454/82 267/370/82
f 242/307/115 254/360/115 253/372/115
f 240/348/116 252/376/116 295/373/116
f 240/348/117 239/351/117 251/375/117
f 372/377/138 332/692/138 258/378/138
f 370/379/180 258/378/180 260/380/180
f 377/382/90 139/575/90 259/383/90
f 300/384/81 135/204/81 258/203/81
f 360/243/94 136/243/94 257/243/94
f 299/243/94 133/243/94 255/243/94
f 262/385/94 265/330/94 271/329/94
f 266/387/94 263/456/94 269/388/94
f 334/390/119 264/425/119 270/325/119
f 333/392/120 262/385/120 268/386/120
f 272/389/121 269/388/121 275/394/121
f 268/386/122 271/329/122 277/395/122
f 270/325/121 276/324/121 338/397/121
f 268/386/122 274/396/122 337/398/122
f 280/399/125 281/424/125 284/400/125
f 339/402/125 280/399/125 283/401/125
f 285/404/126 288/450/126 290/405/126
f 286/407/126 289/693/126 342/408/126
f 283/410/127 284/694/127 293/259/127
f 340/412/127 283/410/127 292/411/127
f 288/413/128 294/435/128 296/414/128
f 289/416/128 295/444/128 344/417/128
f 233/419/80 285/404/80 287/406/80
f 228/304/129 282/306/129 291/421/129
f 324/422/80 235/695/80 286/407/80
f 224/423/81 226/696/81 281/424/81
f 154/311/82 270/325/82 264/425/82
f 151/371/82 267/370/82 273/426/82
f 321/427/81 224/423/81 280/399/81
f 156/275/90 182/303/90 277/395/90
f 231/328/130 284/356/130 281/428/130
f 299/429/81 134/257/81 262/256/81
f 140/431/90 266/387/90 272/389/90
f 176/432/80 274/443/80 277/433/80
f 250/366/81 254/368/81 296/414/81
f 140/436/80 135/466/80 263/437/80
f 250/366/81 294/435/81 344/417/81
f 174/440/80 273/697/80 337/441/80
f 305/442/80 337/441/80 274/443/80
f 329/439/81 344/417/81 295/444/81
f 299/429/81 333/430/81 261/445/81
f 222/447/81 321/427/81 339/402/81
f 233/419/80 324/422/80 341/409/80
f 342/418/128 344/417/128 294/435/128
f 282/449/127 340/412/127 343/201/127
f 341/409/126 342/408/126 288/450/126
f 279/448/125 339/402/125 340/403/125
f 267/370/181 335/455/181 337/452/181
f 269/388/182 336/457/182 338/453/182
f 261/454/119 333/698/119 335/455/119
f 263/456/120 334/699/120 336/457/120
f 134/458/94 299/459/94 331/459/94
f 136/243/94 300/243/94 332/243/94
f 257/460/94 332/700/94 372/461/94
f 249/463/114 250/366/114 329/439/114
f 244/464/109 327/199/109 328/353/109
f 300/342/80 334/344/80 263/437/80
f 239/467/105 326/338/105 330/341/105
f 204/243/94 315/243/94 324/243/94
f 234/469/104 325/337/104 326/338/104
f 323/318/101 328/323/101 245/470/101
f 216/243/94 319/243/94 321/243/94
f 322/319/100 323/318/100 229/320/100
f 210/243/94 317/243/94 319/243/94
f 217/243/94 320/243/94 322/243/94
f 192/243/94 311/243/94 315/243/94
f 193/243/94 312/243/94 316/243/94
f 198/243/94 313/243/94 317/243/94
f 211/243/94 318/243/94 320/243/94
f 205/243/94 316/243/94 325/243/94
f 178/243/94 306/243/94 311/243/94
f 179/243/94 307/243/94 312/243/94
f 186/243/94 309/243/94 313/243/94
f 199/243/94 314/243/94 318/243/94
f 174/243/94 305/243/94 309/243/94
f 187/243/94 310/243/94 314/243/94
f 175/243/94 308/243/94 310/243/94
f 167/471/80 304/285/80 301/286/80
f 169/249/81 303/282/81 302/284/81
f 173/243/94 308/243/94 436/243/94
f 297/269/84 301/268/84 150/473/84
f 298/195/84 302/263/84 153/474/84
f 307/475/131 451/642/131 449/476/131
f 306/207/81 338/206/81 276/478/81
f 246/258/80 327/199/80 343/201/80
f 131/216/79 466/512/79 469/221/79
f 130/217/132 137/219/132 470/480/132
f 358/482/133 373/701/133 392/483/133
f 375/243/94 346/243/94 355/243/94
f 362/243/94 348/243/94 357/243/94
f 356/485/94 357/529/94 386/486/94
f 358/488/134 356/530/134 385/489/134
f 383/491/82 354/511/82 346/492/82
f 382/494/90 353/501/90 351/495/90
f 349/497/93 351/543/93 365/498/93
f 381/500/90 352/531/90 353/501/90
f 486/502/89 349/497/89 363/499/89
f 350/504/86 352/531/86 381/500/86
f 129/267/132 297/269/132 461/506/132
f 412/508/83 350/504/83 379/505/83
f 374/510/82 345/513/82 354/511/82
f 298/195/79 467/194/79 466/512/79
f 345/513/135 374/510/135 473/514/135
f 484/503/89 363/499/89 142/516/89
f 363/499/93 365/498/93 146/518/93
f 140/519/94 362/520/94 371/520/94
f 482/522/85 478/533/85 477/523/85
f 384/525/136 387/702/136 392/526/136
f 346/243/94 360/243/94 369/243/94
f 370/528/94 371/703/94 357/529/94
f 372/377/134 370/379/134 356/530/134
f 346/492/82 354/511/82 368/210/82
f 353/501/90 367/235/90 365/290/90
f 352/531/90 366/224/90 367/235/90
f 350/504/86 364/213/86 366/224/86
f 412/508/83 414/211/83 364/213/83
f 345/513/82 359/208/82 368/210/82
f 345/513/135 474/515/135 463/532/135
f 482/522/85 483/220/85 468/222/85
f 129/271/82 374/510/82 383/491/82
f 415/509/83 379/505/83 143/534/83
f 379/505/86 381/500/86 147/239/86
f 147/239/90 381/500/90 382/494/90
f 165/240/90 382/494/90 380/496/90
f 159/264/82 383/491/82 375/493/82
f 373/490/183 385/489/183 256/536/183
f 385/489/94 386/704/94 259/538/94
f 133/243/94 375/243/94 384/243/94
f 384/539/94 373/705/94 331/540/94
f 374/510/135 129/271/135 471/542/135
f 348/243/94 377/243/94 386/243/94
f 349/497/93 378/233/93 380/242/93
f 486/502/89 485/231/89 378/233/89
f 481/524/85 477/523/85 470/480/85
f 390/243/94 392/243/94 398/243/94
f 392/243/94 387/243/94 393/243/94
f 369/544/140 372/706/140 389/545/140
f 355/547/141 369/707/141 391/548/141
f 358/482/133 390/484/133 389/550/133
f 355/547/141 388/549/141 387/552/141
f 396/554/142 398/708/142 404/555/142
f 393/557/143 399/709/143 404/558/143
f 391/243/94 389/243/94 395/243/94
f 388/243/94 391/243/94 397/243/94
f 389/243/94 390/243/94 396/243/94
f 387/243/94 388/243/94 394/243/94
f 400/560/94 402/556/94 404/555/94
f 403/562/94 401/569/94 402/556/94
f 397/563/144 395/710/144 401/564/144
f 394/566/145 397/711/145 403/567/145
f 396/554/142 402/556/142 401/569/142
f 394/566/145 400/568/145 399/571/145
f 376/573/146 489/573/146 487/574/146
f 377/382/184 415/509/184 405/535/184
f 348/576/148 362/520/148 414/211/148
f 483/220/89 484/503/89 407/517/89
f 348/576/148 412/508/148 415/509/148
f 361/577/149 490/577/149 491/578/149
f 162/579/87 410/225/87 406/294/87
f 161/581/88 409/228/88 408/292/88
f 481/524/89 137/219/89 408/583/89
f 161/581/88 139/712/88 405/584/88
f 162/579/87 138/713/87 407/585/87
f 362/520/185 140/519/185 406/586/185
f 419/587/97 423/591/97 424/588/97
f 155/243/94 171/243/94 420/243/94
f 161/243/94 137/243/94 418/243/94
f 137/243/94 155/243/94 417/243/94
f 422/590/90 421/592/90 424/588/90
f 420/589/151 424/588/151 421/592/151
f 418/594/152 422/714/152 423/595/152
f 418/597/153 417/593/153 421/592/153
f 427/278/90 428/277/90 426/598/90
f 157/600/154 426/598/154 428/277/154
f 162/601/155 427/715/155 425/602/155
f 138/604/153 425/599/153 426/598/153
f 433/605/90 441/716/90 443/606/90
f 434/608/156 429/717/156 437/609/156
f 436/611/157 444/622/157 438/612/157
f 308/243/94 175/243/94 431/243/94
f 175/243/94 181/243/94 435/243/94
f 168/243/94 304/243/94 434/243/94
f 171/243/94 168/243/94 432/243/94
f 167/243/94 173/243/94 430/243/94
f 440/614/158 439/620/158 443/615/158
f 437/617/158 438/718/158 444/618/158
f 442/619/158 444/618/158 439/620/158
f 431/621/157 439/624/157 444/622/157
f 435/623/157 443/719/157 439/624/157
f 432/625/156 434/608/156 442/610/156
f 433/627/156 432/625/156 440/626/156
f 429/629/82 430/720/82 438/630/82
f 446/632/159 450/721/159 449/633/159
f 445/634/159 449/633/159 451/635/159
f 447/636/159 451/635/159 452/637/159
f 170/262/82 448/722/82 452/639/82
f 179/641/131 452/723/131 451/642/131
f 177/477/131 449/476/131 450/643/131
f 170/645/95 303/250/95 447/252/95
f 169/647/95 172/724/95 446/648/95
f 454/649/82 458/659/82 457/265/82
f 455/273/82 459/272/82 460/651/82
f 133/653/160 151/725/160 458/654/160
f 136/656/160 456/661/160 460/657/160
f 154/311/161 460/651/161 459/272/161
f 151/371/162 167/266/162 457/265/162
f 136/656/163 160/726/163 455/660/163
f 133/653/164 454/655/164 453/662/164
f 465/664/84 466/512/84 467/194/84
f 475/666/84 462/481/84 470/480/84
f 472/665/84 467/194/84 464/667/84
f 479/669/84 480/672/84 474/670/84
f 465/664/84 476/673/84 478/533/84
f 475/666/84 476/673/84 480/672/84
f 466/512/84 465/664/84 468/222/84
f 480/672/84 472/665/84 463/668/84
f 476/673/84 465/664/84 472/665/84
f 462/481/84 475/666/84 479/669/84
f 461/506/84 479/669/84 473/671/84
f 476/673/84 475/666/84 477/523/84
f 359/208/135 463/532/135 464/674/135
f 297/269/132 130/217/132 462/481/132
f 376/573/89 347/574/89 482/522/89
f 361/577/89 483/220/89 482/522/89
f 361/577/89 413/578/89 484/503/89
f 376/573/89 481/524/89 485/231/89
f 416/676/89 485/231/89 486/502/89
f 413/578/89 411/677/89 486/502/89
f 498/676/165 502/676/165 503/677/165
f 489/573/146 495/573/146 493/574/146
f 413/578/166 491/578/166 488/677/166
f 376/573/167 416/676/167 492/676/167
f 347/574/146 487/574/146 490/577/146
f 411/677/166 488/677/166 492/676/166
f 493/574/89 495/573/89 498/676/89
f 493/574/89 494/677/89 497/578/89
f 489/573/167 492/676/167 498/676/167
f 487/574/146 493/574/146 496/577/146
f 491/578/168 501/578/168 500/677/168
f 490/577/149 496/577/149 497/578/149
f 504/578/81 510/578/81 507/578/81
f 502/676/80 499/676/80 505/676/80
f 498/676/80 492/676/80 499/676/80
f 497/578/81 504/578/81 501/578/81
f 494/677/165 503/677/165 504/578/165
f 488/677/168 500/677/168 499/676/168
f 506/677/169 507/578/169 510/578/169
f 506/677/170 509/677/170 508/676/170
f 502/676/171 508/676/171 509/677/171
f 500/677/172 506/677/172 505/676/172
f 503/677/171 509/677/171 510/578/171
f 501/578/172 507/578/172 506/677/172
